ISO-10303-21;
HEADER;

/* File generated by Shapr3D Version 3.0 */

FILE_DESCRIPTION(('HOOPS Exchange Step'),'2;1');

FILE_NAME('/private/var/mobile/Containers/Data/Application/ED4C2A4C-7E5D-45B7-BA36-C01864C68EB8/tmp/export/temp_export',
'2020-11-18T09:38:08+01:00',
('mobile'),
('Shapr3D Limited'),
'HOOPS Exchange 2020.2',
'Shapr3D',
'Authorized');

FILE_SCHEMA( ('AP203_CONFIGURATION_CONTROLLED_3D_DESIGN_OF_MECHANICAL_PARTS_AND_ASSEMBLIES_MIM_LF') );

ENDSEC;

DATA;
#3=(NAMED_UNIT(*)PLANE_ANGLE_UNIT()SI_UNIT($,.RADIAN.));
#4=PLANE_ANGLE_MEASURE_WITH_UNIT(PLANE_ANGLE_MEASURE(0.0174532925),#3);
#5=(CONVERSION_BASED_UNIT('DEGREE',#4)NAMED_UNIT(#6)PLANE_ANGLE_UNIT());
#6=DIMENSIONAL_EXPONENTS(0.,0.,0.,0.,0.,0.,0.);
#7=(NAMED_UNIT(*)SI_UNIT($,.STERADIAN.)SOLID_ANGLE_UNIT());
#8=(LENGTH_UNIT()NAMED_UNIT(*)SI_UNIT(.MILLI.,.METRE.));
#9=UNCERTAINTY_MEASURE_WITH_UNIT(LENGTH_MEASURE(1.000000E-05),#8,'DISTANCE_ACCURACY_VALUE','Maximum Tolerance applied to model');
#10=(GEOMETRIC_REPRESENTATION_CONTEXT(3)GLOBAL_UNCERTAINTY_ASSIGNED_CONTEXT((#9))GLOBAL_UNIT_ASSIGNED_CONTEXT((#8,#5,#7))REPRESENTATION_CONTEXT('','/var/mobile/Containers/Data/Application/ED4C2A4C-7E5D-45B7-BA36-C01864C68EB8/Documents/A2867DB8-CD23-456E-BED2-81E4105DE953.tmp'));
#12=CARTESIAN_POINT('',(0.,0.,0.));
#13=DIRECTION('',(0.,0.,1.));
#14=DIRECTION('',(1.,0.,0.));
#15=AXIS2_PLACEMENT_3D('',#12,#13,#14);
#27=CARTESIAN_POINT('',(0.,0.,0.));
#28=DIRECTION('',(0.,0.,1.));
#29=DIRECTION('',(1.,0.,0.));
#30=AXIS2_PLACEMENT_3D('',#27,#28,#29);
#31=PLANE('',#30);
#32=CARTESIAN_POINT('',(4.5,3.25,0.));
#33=VERTEX_POINT('',#32);
#34=CARTESIAN_POINT('',(3.25,3.25,0.));
#35=DIRECTION('',(0.,0.,1.));
#36=DIRECTION('',(1.,0.,-0.));
#37=AXIS2_PLACEMENT_3D('',#34,#35,#36);
#38=CIRCLE('',#37,1.25);
#39=EDGE_CURVE('',#33,#33,#38,.T.);
#40=ORIENTED_EDGE('',*,*,#39,.F.);
#41=EDGE_LOOP('',(#40));
#42=FACE_BOUND('',#41,.T.);
#43=CARTESIAN_POINT('',(4.5,26.75,0.));
#44=VERTEX_POINT('',#43);
#45=CARTESIAN_POINT('',(3.25,26.75,0.));
#46=DIRECTION('',(0.,0.,1.));
#47=DIRECTION('',(1.,0.,-0.));
#48=AXIS2_PLACEMENT_3D('',#45,#46,#47);
#49=CIRCLE('',#48,1.25);
#50=EDGE_CURVE('',#44,#44,#49,.T.);
#51=ORIENTED_EDGE('',*,*,#50,.F.);
#52=EDGE_LOOP('',(#51));
#53=FACE_BOUND('',#52,.T.);
#54=CARTESIAN_POINT('',(63.,26.75,0.));
#55=VERTEX_POINT('',#54);
#56=CARTESIAN_POINT('',(61.75,26.75,0.));
#57=DIRECTION('',(0.,0.,1.));
#58=DIRECTION('',(1.,0.,-0.));
#59=AXIS2_PLACEMENT_3D('',#56,#57,#58);
#60=CIRCLE('',#59,1.25);
#61=EDGE_CURVE('',#55,#55,#60,.T.);
#62=ORIENTED_EDGE('',*,*,#61,.F.);
#63=EDGE_LOOP('',(#62));
#64=FACE_BOUND('',#63,.T.);
#65=CARTESIAN_POINT('',(63.,3.25,0.));
#66=VERTEX_POINT('',#65);
#67=CARTESIAN_POINT('',(61.75,3.25,0.));
#68=DIRECTION('',(0.,0.,1.));
#69=DIRECTION('',(1.,0.,-0.));
#70=AXIS2_PLACEMENT_3D('',#67,#68,#69);
#71=CIRCLE('',#70,1.25);
#72=EDGE_CURVE('',#66,#66,#71,.T.);
#73=ORIENTED_EDGE('',*,*,#72,.F.);
#74=EDGE_LOOP('',(#73));
#75=FACE_BOUND('',#74,.T.);
#76=CARTESIAN_POINT('',(0.5,20.,0.));
#77=VERTEX_POINT('',#76);
#78=CARTESIAN_POINT('',(0.5,23.,0.));
#79=VERTEX_POINT('',#78);
#80=CARTESIAN_POINT('',(0.5,20.,0.));
#81=DIRECTION('',(0.,1.,0.));
#82=VECTOR('',#81,3.);
#83=LINE('',#80,#82);
#84=EDGE_CURVE('',#77,#79,#83,.T.);
#85=ORIENTED_EDGE('',*,*,#84,.T.);
#86=CARTESIAN_POINT('',(4.5,23.,0.));
#87=VERTEX_POINT('',#86);
#88=CARTESIAN_POINT('',(0.5,23.,0.));
#89=DIRECTION('',(1.,0.,-0.));
#90=VECTOR('',#89,4.);
#91=LINE('',#88,#90);
#92=EDGE_CURVE('',#79,#87,#91,.T.);
#93=ORIENTED_EDGE('',*,*,#92,.T.);
#94=CARTESIAN_POINT('',(4.5,20.,0.));
#95=VERTEX_POINT('',#94);
#96=CARTESIAN_POINT('',(4.5,23.,0.));
#97=DIRECTION('',(0.,-1.,0.));
#98=VECTOR('',#97,3.);
#99=LINE('',#96,#98);
#100=EDGE_CURVE('',#87,#95,#99,.T.);
#101=ORIENTED_EDGE('',*,*,#100,.T.);
#102=CARTESIAN_POINT('',(4.5,20.,0.));
#103=DIRECTION('',(-1.,0.,0.));
#104=VECTOR('',#103,4.);
#105=LINE('',#102,#104);
#106=EDGE_CURVE('',#95,#77,#105,.T.);
#107=ORIENTED_EDGE('',*,*,#106,.T.);
#108=EDGE_LOOP('',(#85,#93,#101,#107));
#109=FACE_BOUND('',#108,.T.);
#110=CARTESIAN_POINT('',(19.5,15.,0.));
#111=VERTEX_POINT('',#110);
#112=CARTESIAN_POINT('',(13.5,15.,0.));
#113=VERTEX_POINT('',#112);
#114=CARTESIAN_POINT('',(19.5,15.,0.));
#115=DIRECTION('',(-1.,0.,0.));
#116=VECTOR('',#115,6.);
#117=LINE('',#114,#116);
#118=EDGE_CURVE('',#111,#113,#117,.T.);
#119=ORIENTED_EDGE('',*,*,#118,.T.);
#120=CARTESIAN_POINT('',(13.5,21.,0.));
#121=VERTEX_POINT('',#120);
#122=CARTESIAN_POINT('',(13.5,21.,0.));
#123=DIRECTION('',(0.,-1.,0.));
#124=VECTOR('',#123,6.);
#125=LINE('',#122,#124);
#126=EDGE_CURVE('',#121,#113,#125,.T.);
#127=ORIENTED_EDGE('',*,*,#126,.F.);
#128=CARTESIAN_POINT('',(19.5,21.,0.));
#129=VERTEX_POINT('',#128);
#130=CARTESIAN_POINT('',(13.5,21.,0.));
#131=DIRECTION('',(1.,0.,-0.));
#132=VECTOR('',#131,6.);
#133=LINE('',#130,#132);
#134=EDGE_CURVE('',#121,#129,#133,.T.);
#135=ORIENTED_EDGE('',*,*,#134,.T.);
#136=CARTESIAN_POINT('',(19.5,21.,0.));
#137=DIRECTION('',(0.,-1.,0.));
#138=VECTOR('',#137,6.);
#139=LINE('',#136,#138);
#140=EDGE_CURVE('',#129,#111,#139,.T.);
#141=ORIENTED_EDGE('',*,*,#140,.T.);
#142=EDGE_LOOP('',(#119,#127,#135,#141));
#143=FACE_BOUND('',#142,.T.);
#144=CARTESIAN_POINT('',(65.,28.,0.));
#145=VERTEX_POINT('',#144);
#146=CARTESIAN_POINT('',(65.,2.,0.));
#147=VERTEX_POINT('',#146);
#148=CARTESIAN_POINT('',(65.,28.,0.));
#149=DIRECTION('',(0.,-1.,0.));
#150=VECTOR('',#149,26.);
#151=LINE('',#148,#150);
#152=EDGE_CURVE('',#145,#147,#151,.T.);
#153=ORIENTED_EDGE('',*,*,#152,.F.);
#154=CARTESIAN_POINT('',(63.,30.,0.));
#155=VERTEX_POINT('',#154);
#156=CARTESIAN_POINT('',(63.,28.,0.));
#157=DIRECTION('',(0.,0.,1.));
#158=DIRECTION('',(1.,0.,-0.));
#159=AXIS2_PLACEMENT_3D('',#156,#157,#158);
#160=CIRCLE('',#159,2.);
#161=EDGE_CURVE('',#145,#155,#160,.T.);
#162=ORIENTED_EDGE('',*,*,#161,.T.);
#163=CARTESIAN_POINT('',(2.,30.,0.));
#164=VERTEX_POINT('',#163);
#165=CARTESIAN_POINT('',(2.,30.,0.));
#166=DIRECTION('',(1.,0.,-0.));
#167=VECTOR('',#166,61.);
#168=LINE('',#165,#167);
#169=EDGE_CURVE('',#164,#155,#168,.T.);
#170=ORIENTED_EDGE('',*,*,#169,.F.);
#171=CARTESIAN_POINT('',(0.,28.,0.));
#172=VERTEX_POINT('',#171);
#173=CARTESIAN_POINT('',(2.,28.,0.));
#174=DIRECTION('',(0.,0.,1.));
#175=DIRECTION('',(1.,0.,-0.));
#176=AXIS2_PLACEMENT_3D('',#173,#174,#175);
#177=CIRCLE('',#176,2.);
#178=EDGE_CURVE('',#164,#172,#177,.T.);
#179=ORIENTED_EDGE('',*,*,#178,.T.);
#180=CARTESIAN_POINT('',(0.,17.,0.));
#181=VERTEX_POINT('',#180);
#182=CARTESIAN_POINT('',(0.,17.,0.));
#183=DIRECTION('',(0.,1.,0.));
#184=VECTOR('',#183,11.);
#185=LINE('',#182,#184);
#186=EDGE_CURVE('',#181,#172,#185,.T.);
#187=ORIENTED_EDGE('',*,*,#186,.F.);
#188=CARTESIAN_POINT('',(4.5,17.,0.));
#189=VERTEX_POINT('',#188);
#190=CARTESIAN_POINT('',(4.5,17.,0.));
#191=DIRECTION('',(-1.,0.,0.));
#192=VECTOR('',#191,4.5);
#193=LINE('',#190,#192);
#194=EDGE_CURVE('',#189,#181,#193,.T.);
#195=ORIENTED_EDGE('',*,*,#194,.F.);
#196=CARTESIAN_POINT('',(4.5,9.5,0.));
#197=VERTEX_POINT('',#196);
#198=CARTESIAN_POINT('',(4.5,9.5,0.));
#199=DIRECTION('',(0.,1.,0.));
#200=VECTOR('',#199,7.5);
#201=LINE('',#198,#200);
#202=EDGE_CURVE('',#197,#189,#201,.T.);
#203=ORIENTED_EDGE('',*,*,#202,.F.);
#204=CARTESIAN_POINT('',(0.,9.5,0.));
#205=VERTEX_POINT('',#204);
#206=CARTESIAN_POINT('',(0.,9.5,0.));
#207=DIRECTION('',(1.,0.,-0.));
#208=VECTOR('',#207,4.5);
#209=LINE('',#206,#208);
#210=EDGE_CURVE('',#205,#197,#209,.T.);
#211=ORIENTED_EDGE('',*,*,#210,.F.);
#212=CARTESIAN_POINT('',(0.,2.,0.));
#213=VERTEX_POINT('',#212);
#214=CARTESIAN_POINT('',(0.,2.,0.));
#215=DIRECTION('',(0.,1.,0.));
#216=VECTOR('',#215,7.5);
#217=LINE('',#214,#216);
#218=EDGE_CURVE('',#213,#205,#217,.T.);
#219=ORIENTED_EDGE('',*,*,#218,.F.);
#220=CARTESIAN_POINT('',(2.,0.,0.));
#221=VERTEX_POINT('',#220);
#222=CARTESIAN_POINT('',(2.,2.,0.));
#223=DIRECTION('',(0.,0.,1.));
#224=DIRECTION('',(1.,0.,-0.));
#225=AXIS2_PLACEMENT_3D('',#222,#223,#224);
#226=CIRCLE('',#225,2.);
#227=EDGE_CURVE('',#213,#221,#226,.T.);
#228=ORIENTED_EDGE('',*,*,#227,.T.);
#229=CARTESIAN_POINT('',(6.5,0.,0.));
#230=VERTEX_POINT('',#229);
#231=CARTESIAN_POINT('',(6.5,0.,0.));
#232=DIRECTION('',(-1.,0.,0.));
#233=VECTOR('',#232,4.5);
#234=LINE('',#231,#233);
#235=EDGE_CURVE('',#230,#221,#234,.T.);
#236=ORIENTED_EDGE('',*,*,#235,.F.);
#237=CARTESIAN_POINT('',(6.5,8.,0.));
#238=VERTEX_POINT('',#237);
#239=CARTESIAN_POINT('',(6.5,0.,0.));
#240=DIRECTION('',(0.,1.,0.));
#241=VECTOR('',#240,8.);
#242=LINE('',#239,#241);
#243=EDGE_CURVE('',#230,#238,#242,.T.);
#244=ORIENTED_EDGE('',*,*,#243,.T.);
#245=CARTESIAN_POINT('',(18.5,8.,0.));
#246=VERTEX_POINT('',#245);
#247=CARTESIAN_POINT('',(6.5,8.,0.));
#248=DIRECTION('',(1.,0.,-0.));
#249=VECTOR('',#248,12.);
#250=LINE('',#247,#249);
#251=EDGE_CURVE('',#238,#246,#250,.T.);
#252=ORIENTED_EDGE('',*,*,#251,.T.);
#253=CARTESIAN_POINT('',(18.5,0.,0.));
#254=VERTEX_POINT('',#253);
#255=CARTESIAN_POINT('',(18.5,8.,0.));
#256=DIRECTION('',(0.,-1.,0.));
#257=VECTOR('',#256,8.);
#258=LINE('',#255,#257);
#259=EDGE_CURVE('',#246,#254,#258,.T.);
#260=ORIENTED_EDGE('',*,*,#259,.T.);
#261=CARTESIAN_POINT('',(20.,0.,0.));
#262=VERTEX_POINT('',#261);
#263=CARTESIAN_POINT('',(20.,0.,0.));
#264=DIRECTION('',(-1.,0.,0.));
#265=VECTOR('',#264,1.5);
#266=LINE('',#263,#265);
#267=EDGE_CURVE('',#262,#254,#266,.T.);
#268=ORIENTED_EDGE('',*,*,#267,.F.);
#269=CARTESIAN_POINT('',(20.,8.,0.));
#270=VERTEX_POINT('',#269);
#271=CARTESIAN_POINT('',(20.,0.,0.));
#272=DIRECTION('',(0.,1.,0.));
#273=VECTOR('',#272,8.);
#274=LINE('',#271,#273);
#275=EDGE_CURVE('',#262,#270,#274,.T.);
#276=ORIENTED_EDGE('',*,*,#275,.T.);
#277=CARTESIAN_POINT('',(32.,8.,0.));
#278=VERTEX_POINT('',#277);
#279=CARTESIAN_POINT('',(20.,8.,0.));
#280=DIRECTION('',(1.,0.,-0.));
#281=VECTOR('',#280,12.);
#282=LINE('',#279,#281);
#283=EDGE_CURVE('',#270,#278,#282,.T.);
#284=ORIENTED_EDGE('',*,*,#283,.T.);
#285=CARTESIAN_POINT('',(32.,0.,0.));
#286=VERTEX_POINT('',#285);
#287=CARTESIAN_POINT('',(32.,8.,0.));
#288=DIRECTION('',(0.,-1.,0.));
#289=VECTOR('',#288,8.);
#290=LINE('',#287,#289);
#291=EDGE_CURVE('',#278,#286,#290,.T.);
#292=ORIENTED_EDGE('',*,*,#291,.T.);
#293=CARTESIAN_POINT('',(33.5,0.,0.));
#294=VERTEX_POINT('',#293);
#295=CARTESIAN_POINT('',(33.5,0.,0.));
#296=DIRECTION('',(-1.,0.,0.));
#297=VECTOR('',#296,1.5);
#298=LINE('',#295,#297);
#299=EDGE_CURVE('',#294,#286,#298,.T.);
#300=ORIENTED_EDGE('',*,*,#299,.F.);
#301=CARTESIAN_POINT('',(33.5,6.,0.));
#302=VERTEX_POINT('',#301);
#303=CARTESIAN_POINT('',(33.5,0.,0.));
#304=DIRECTION('',(0.,1.,0.));
#305=VECTOR('',#304,6.);
#306=LINE('',#303,#305);
#307=EDGE_CURVE('',#294,#302,#306,.T.);
#308=ORIENTED_EDGE('',*,*,#307,.T.);
#309=CARTESIAN_POINT('',(41.5,6.,0.));
#310=VERTEX_POINT('',#309);
#311=CARTESIAN_POINT('',(33.5,6.,0.));
#312=DIRECTION('',(1.,-0.,0.));
#313=VECTOR('',#312,8.);
#314=LINE('',#311,#313);
#315=EDGE_CURVE('',#302,#310,#314,.T.);
#316=ORIENTED_EDGE('',*,*,#315,.T.);
#317=CARTESIAN_POINT('',(41.5,0.,0.));
#318=VERTEX_POINT('',#317);
#319=CARTESIAN_POINT('',(41.5,6.,0.));
#320=DIRECTION('',(0.,-1.,0.));
#321=VECTOR('',#320,6.);
#322=LINE('',#319,#321);
#323=EDGE_CURVE('',#310,#318,#322,.T.);
#324=ORIENTED_EDGE('',*,*,#323,.T.);
#325=CARTESIAN_POINT('',(52.,0.,0.));
#326=VERTEX_POINT('',#325);
#327=CARTESIAN_POINT('',(52.,0.,0.));
#328=DIRECTION('',(-1.,0.,0.));
#329=VECTOR('',#328,10.5);
#330=LINE('',#327,#329);
#331=EDGE_CURVE('',#326,#318,#330,.T.);
#332=ORIENTED_EDGE('',*,*,#331,.F.);
#333=CARTESIAN_POINT('',(52.,14.,0.));
#334=VERTEX_POINT('',#333);
#335=CARTESIAN_POINT('',(52.,14.,0.));
#336=DIRECTION('',(0.,-1.,0.));
#337=VECTOR('',#336,14.);
#338=LINE('',#335,#337);
#339=EDGE_CURVE('',#334,#326,#338,.T.);
#340=ORIENTED_EDGE('',*,*,#339,.F.);
#341=CARTESIAN_POINT('',(58.,14.,0.));
#342=VERTEX_POINT('',#341);
#343=CARTESIAN_POINT('',(58.,14.,0.));
#344=DIRECTION('',(-1.,0.,0.));
#345=VECTOR('',#344,6.);
#346=LINE('',#343,#345);
#347=EDGE_CURVE('',#342,#334,#346,.T.);
#348=ORIENTED_EDGE('',*,*,#347,.F.);
#349=CARTESIAN_POINT('',(58.,0.,0.));
#350=VERTEX_POINT('',#349);
#351=CARTESIAN_POINT('',(58.,0.,0.));
#352=DIRECTION('',(0.,1.,0.));
#353=VECTOR('',#352,14.);
#354=LINE('',#351,#353);
#355=EDGE_CURVE('',#350,#342,#354,.T.);
#356=ORIENTED_EDGE('',*,*,#355,.F.);
#357=CARTESIAN_POINT('',(63.,0.,0.));
#358=VERTEX_POINT('',#357);
#359=CARTESIAN_POINT('',(63.,0.,0.));
#360=DIRECTION('',(-1.,0.,0.));
#361=VECTOR('',#360,5.);
#362=LINE('',#359,#361);
#363=EDGE_CURVE('',#358,#350,#362,.T.);
#364=ORIENTED_EDGE('',*,*,#363,.F.);
#365=CARTESIAN_POINT('',(63.,2.,0.));
#366=DIRECTION('',(0.,0.,1.));
#367=DIRECTION('',(1.,0.,-0.));
#368=AXIS2_PLACEMENT_3D('',#365,#366,#367);
#369=CIRCLE('',#368,2.);
#370=EDGE_CURVE('',#358,#147,#369,.T.);
#371=ORIENTED_EDGE('',*,*,#370,.T.);
#372=EDGE_LOOP('',(#153,#162,#170,#179,#187,#195,#203,#211,#219,#228,#236,#244,#252,#260,#268,#276,#284,#292,#300,#308,#316,#324,#332,#340,#348,#356,
#364,#371));
#373=FACE_BOUND('',#372,.T.);
#374=CARTESIAN_POINT('',(64.5,20.,0.));
#375=VERTEX_POINT('',#374);
#376=CARTESIAN_POINT('',(64.5,23.,0.));
#377=VERTEX_POINT('',#376);
#378=CARTESIAN_POINT('',(64.5,20.,0.));
#379=DIRECTION('',(0.,1.,0.));
#380=VECTOR('',#379,3.);
#381=LINE('',#378,#380);
#382=EDGE_CURVE('',#375,#377,#381,.T.);
#383=ORIENTED_EDGE('',*,*,#382,.F.);
#384=CARTESIAN_POINT('',(60.5,20.,0.));
#385=VERTEX_POINT('',#384);
#386=CARTESIAN_POINT('',(60.5,20.,0.));
#387=DIRECTION('',(1.,0.,-0.));
#388=VECTOR('',#387,4.);
#389=LINE('',#386,#388);
#390=EDGE_CURVE('',#385,#375,#389,.T.);
#391=ORIENTED_EDGE('',*,*,#390,.F.);
#392=CARTESIAN_POINT('',(60.5,23.,0.));
#393=VERTEX_POINT('',#392);
#394=CARTESIAN_POINT('',(60.5,23.,0.));
#395=DIRECTION('',(0.,-1.,0.));
#396=VECTOR('',#395,3.);
#397=LINE('',#394,#396);
#398=EDGE_CURVE('',#393,#385,#397,.T.);
#399=ORIENTED_EDGE('',*,*,#398,.F.);
#400=CARTESIAN_POINT('',(64.5,23.,0.));
#401=DIRECTION('',(-1.,0.,0.));
#402=VECTOR('',#401,4.);
#403=LINE('',#400,#402);
#404=EDGE_CURVE('',#377,#393,#403,.T.);
#405=ORIENTED_EDGE('',*,*,#404,.F.);
#406=EDGE_LOOP('',(#383,#391,#399,#405));
#407=FACE_BOUND('',#406,.T.);
#408=ADVANCED_FACE('',(#42,#53,#64,#75,#109,#143,#373,#407),#31,.T.);
#409=CARTESIAN_POINT('',(32.5,30.,-1.));
#410=DIRECTION('',(0.,-1.,0.));
#411=DIRECTION('',(0.,0.,-1.));
#412=AXIS2_PLACEMENT_3D('',#409,#410,#411);
#413=PLANE('',#412);
#414=ORIENTED_EDGE('',*,*,#169,.T.);
#415=CARTESIAN_POINT('',(63.,30.,-1.));
#416=VERTEX_POINT('',#415);
#417=CARTESIAN_POINT('',(63.,30.,0.));
#418=DIRECTION('',(-0.,-0.,-1.));
#419=VECTOR('',#418,1.);
#420=LINE('',#417,#419);
#421=EDGE_CURVE('',#155,#416,#420,.T.);
#422=ORIENTED_EDGE('',*,*,#421,.T.);
#423=CARTESIAN_POINT('',(2.,30.,-1.));
#424=VERTEX_POINT('',#423);
#425=CARTESIAN_POINT('',(2.,30.,-1.));
#426=DIRECTION('',(1.,0.,-0.));
#427=VECTOR('',#426,61.);
#428=LINE('',#425,#427);
#429=EDGE_CURVE('',#424,#416,#428,.T.);
#430=ORIENTED_EDGE('',*,*,#429,.F.);
#431=CARTESIAN_POINT('',(2.,30.,-1.));
#432=DIRECTION('',(0.,0.,1.));
#433=VECTOR('',#432,1.);
#434=LINE('',#431,#433);
#435=EDGE_CURVE('',#424,#164,#434,.T.);
#436=ORIENTED_EDGE('',*,*,#435,.T.);
#437=EDGE_LOOP('',(#414,#422,#430,#436));
#438=FACE_BOUND('',#437,.T.);
#439=ADVANCED_FACE('',(#438),#413,.F.);
#440=CARTESIAN_POINT('',(0.,15.,-1.));
#441=DIRECTION('',(1.,0.,0.));
#442=DIRECTION('',(0.,0.,-1.));
#443=AXIS2_PLACEMENT_3D('',#440,#441,#442);
#444=PLANE('',#443);
#445=CARTESIAN_POINT('',(0.,2.,-1.));
#446=VERTEX_POINT('',#445);
#447=CARTESIAN_POINT('',(0.,28.,-1.));
#448=VERTEX_POINT('',#447);
#449=CARTESIAN_POINT('',(0.,2.,-1.));
#450=DIRECTION('',(0.,1.,0.));
#451=VECTOR('',#450,26.);
#452=LINE('',#449,#451);
#453=EDGE_CURVE('',#446,#448,#452,.T.);
#454=ORIENTED_EDGE('',*,*,#453,.F.);
#455=CARTESIAN_POINT('',(0.,2.,-1.));
#456=DIRECTION('',(0.,0.,1.));
#457=VECTOR('',#456,1.);
#458=LINE('',#455,#457);
#459=EDGE_CURVE('',#446,#213,#458,.T.);
#460=ORIENTED_EDGE('',*,*,#459,.T.);
#461=ORIENTED_EDGE('',*,*,#218,.T.);
#462=CARTESIAN_POINT('',(0.,9.5,0.));
#463=DIRECTION('',(0.,1.,0.));
#464=VECTOR('',#463,7.5);
#465=LINE('',#462,#464);
#466=EDGE_CURVE('',#205,#181,#465,.T.);
#467=ORIENTED_EDGE('',*,*,#466,.T.);
#468=ORIENTED_EDGE('',*,*,#186,.T.);
#469=CARTESIAN_POINT('',(0.,28.,0.));
#470=DIRECTION('',(-0.,-0.,-1.));
#471=VECTOR('',#470,1.);
#472=LINE('',#469,#471);
#473=EDGE_CURVE('',#172,#448,#472,.T.);
#474=ORIENTED_EDGE('',*,*,#473,.T.);
#475=EDGE_LOOP('',(#454,#460,#461,#467,#468,#474));
#476=FACE_BOUND('',#475,.T.);
#477=ADVANCED_FACE('',(#476),#444,.F.);
#478=CARTESIAN_POINT('',(32.5,0.,-1.));
#479=DIRECTION('',(0.,1.,0.));
#480=DIRECTION('',(0.,0.,1.));
#481=AXIS2_PLACEMENT_3D('',#478,#479,#480);
#482=PLANE('',#481);
#483=CARTESIAN_POINT('',(63.,0.,-1.));
#484=VERTEX_POINT('',#483);
#485=CARTESIAN_POINT('',(2.,0.,-1.));
#486=VERTEX_POINT('',#485);
#487=CARTESIAN_POINT('',(63.,0.,-1.));
#488=DIRECTION('',(-1.,0.,0.));
#489=VECTOR('',#488,61.);
#490=LINE('',#487,#489);
#491=EDGE_CURVE('',#484,#486,#490,.T.);
#492=ORIENTED_EDGE('',*,*,#491,.F.);
#493=CARTESIAN_POINT('',(63.,0.,-1.));
#494=DIRECTION('',(0.,0.,1.));
#495=VECTOR('',#494,1.);
#496=LINE('',#493,#495);
#497=EDGE_CURVE('',#484,#358,#496,.T.);
#498=ORIENTED_EDGE('',*,*,#497,.T.);
#499=ORIENTED_EDGE('',*,*,#363,.T.);
#500=CARTESIAN_POINT('',(58.,0.,0.));
#501=DIRECTION('',(-1.,0.,0.));
#502=VECTOR('',#501,6.);
#503=LINE('',#500,#502);
#504=EDGE_CURVE('',#350,#326,#503,.T.);
#505=ORIENTED_EDGE('',*,*,#504,.T.);
#506=ORIENTED_EDGE('',*,*,#331,.T.);
#507=CARTESIAN_POINT('',(41.5,0.,5.5));
#508=VERTEX_POINT('',#507);
#509=CARTESIAN_POINT('',(41.5,0.,5.5));
#510=DIRECTION('',(0.,0.,-1.));
#511=VECTOR('',#510,5.5);
#512=LINE('',#509,#511);
#513=EDGE_CURVE('',#508,#318,#512,.T.);
#514=ORIENTED_EDGE('',*,*,#513,.F.);
#515=CARTESIAN_POINT('',(33.5,0.,5.5));
#516=VERTEX_POINT('',#515);
#517=CARTESIAN_POINT('',(41.5,0.,5.5));
#518=DIRECTION('',(-1.,0.,0.));
#519=VECTOR('',#518,8.);
#520=LINE('',#517,#519);
#521=EDGE_CURVE('',#508,#516,#520,.T.);
#522=ORIENTED_EDGE('',*,*,#521,.T.);
#523=CARTESIAN_POINT('',(33.5,0.,5.5));
#524=DIRECTION('',(0.,0.,-1.));
#525=VECTOR('',#524,5.5);
#526=LINE('',#523,#525);
#527=EDGE_CURVE('',#516,#294,#526,.T.);
#528=ORIENTED_EDGE('',*,*,#527,.T.);
#529=ORIENTED_EDGE('',*,*,#299,.T.);
#530=CARTESIAN_POINT('',(32.,0.,5.));
#531=VERTEX_POINT('',#530);
#532=CARTESIAN_POINT('',(32.,0.,5.));
#533=DIRECTION('',(0.,0.,-1.));
#534=VECTOR('',#533,5.);
#535=LINE('',#532,#534);
#536=EDGE_CURVE('',#531,#286,#535,.T.);
#537=ORIENTED_EDGE('',*,*,#536,.F.);
#538=CARTESIAN_POINT('',(20.,0.,5.));
#539=VERTEX_POINT('',#538);
#540=CARTESIAN_POINT('',(32.,0.,5.));
#541=DIRECTION('',(-1.,0.,0.));
#542=VECTOR('',#541,12.);
#543=LINE('',#540,#542);
#544=EDGE_CURVE('',#531,#539,#543,.T.);
#545=ORIENTED_EDGE('',*,*,#544,.T.);
#546=CARTESIAN_POINT('',(20.,0.,5.));
#547=DIRECTION('',(0.,0.,-1.));
#548=VECTOR('',#547,5.);
#549=LINE('',#546,#548);
#550=EDGE_CURVE('',#539,#262,#549,.T.);
#551=ORIENTED_EDGE('',*,*,#550,.T.);
#552=ORIENTED_EDGE('',*,*,#267,.T.);
#553=CARTESIAN_POINT('',(18.5,0.,5.));
#554=VERTEX_POINT('',#553);
#555=CARTESIAN_POINT('',(18.5,0.,5.));
#556=DIRECTION('',(0.,0.,-1.));
#557=VECTOR('',#556,5.);
#558=LINE('',#555,#557);
#559=EDGE_CURVE('',#554,#254,#558,.T.);
#560=ORIENTED_EDGE('',*,*,#559,.F.);
#561=CARTESIAN_POINT('',(6.5,0.,5.));
#562=VERTEX_POINT('',#561);
#563=CARTESIAN_POINT('',(18.5,0.,5.));
#564=DIRECTION('',(-1.,0.,0.));
#565=VECTOR('',#564,12.);
#566=LINE('',#563,#565);
#567=EDGE_CURVE('',#554,#562,#566,.T.);
#568=ORIENTED_EDGE('',*,*,#567,.T.);
#569=CARTESIAN_POINT('',(6.5,0.,5.));
#570=DIRECTION('',(0.,0.,-1.));
#571=VECTOR('',#570,5.);
#572=LINE('',#569,#571);
#573=EDGE_CURVE('',#562,#230,#572,.T.);
#574=ORIENTED_EDGE('',*,*,#573,.T.);
#575=ORIENTED_EDGE('',*,*,#235,.T.);
#576=CARTESIAN_POINT('',(2.,0.,0.));
#577=DIRECTION('',(-0.,-0.,-1.));
#578=VECTOR('',#577,1.);
#579=LINE('',#576,#578);
#580=EDGE_CURVE('',#221,#486,#579,.T.);
#581=ORIENTED_EDGE('',*,*,#580,.T.);
#582=EDGE_LOOP('',(#492,#498,#499,#505,#506,#514,#522,#528,#529,#537,#545,#551,#552,#560,#568,#574,#575,#581));
#583=FACE_BOUND('',#582,.T.);
#584=ADVANCED_FACE('',(#583),#482,.F.);
#585=CARTESIAN_POINT('',(65.,15.,-1.));
#586=DIRECTION('',(-1.,0.,0.));
#587=DIRECTION('',(0.,0.,1.));
#588=AXIS2_PLACEMENT_3D('',#585,#586,#587);
#589=PLANE('',#588);
#590=CARTESIAN_POINT('',(65.,28.,-1.));
#591=VERTEX_POINT('',#590);
#592=CARTESIAN_POINT('',(65.,2.,-1.));
#593=VERTEX_POINT('',#592);
#594=CARTESIAN_POINT('',(65.,28.,-1.));
#595=DIRECTION('',(0.,-1.,0.));
#596=VECTOR('',#595,26.);
#597=LINE('',#594,#596);
#598=EDGE_CURVE('',#591,#593,#597,.T.);
#599=ORIENTED_EDGE('',*,*,#598,.F.);
#600=CARTESIAN_POINT('',(65.,28.,-1.));
#601=DIRECTION('',(0.,0.,1.));
#602=VECTOR('',#601,1.);
#603=LINE('',#600,#602);
#604=EDGE_CURVE('',#591,#145,#603,.T.);
#605=ORIENTED_EDGE('',*,*,#604,.T.);
#606=ORIENTED_EDGE('',*,*,#152,.T.);
#607=CARTESIAN_POINT('',(65.,2.,0.));
#608=DIRECTION('',(-0.,-0.,-1.));
#609=VECTOR('',#608,1.);
#610=LINE('',#607,#609);
#611=EDGE_CURVE('',#147,#593,#610,.T.);
#612=ORIENTED_EDGE('',*,*,#611,.T.);
#613=EDGE_LOOP('',(#599,#605,#606,#612));
#614=FACE_BOUND('',#613,.T.);
#615=ADVANCED_FACE('',(#614),#589,.F.);
#616=CARTESIAN_POINT('',(0.,0.,-1.));
#617=DIRECTION('',(0.,0.,1.));
#618=DIRECTION('',(1.,0.,0.));
#619=AXIS2_PLACEMENT_3D('',#616,#617,#618);
#620=PLANE('',#619);
#621=CARTESIAN_POINT('',(4.5,3.25,-1.));
#622=VERTEX_POINT('',#621);
#623=CARTESIAN_POINT('',(3.25,3.25,-1.));
#624=DIRECTION('',(0.,0.,1.));
#625=DIRECTION('',(1.,0.,-0.));
#626=AXIS2_PLACEMENT_3D('',#623,#624,#625);
#627=CIRCLE('',#626,1.25);
#628=EDGE_CURVE('',#622,#622,#627,.T.);
#629=ORIENTED_EDGE('',*,*,#628,.T.);
#630=EDGE_LOOP('',(#629));
#631=FACE_BOUND('',#630,.T.);
#632=CARTESIAN_POINT('',(4.5,26.75,-1.));
#633=VERTEX_POINT('',#632);
#634=CARTESIAN_POINT('',(3.25,26.75,-1.));
#635=DIRECTION('',(0.,0.,1.));
#636=DIRECTION('',(1.,0.,-0.));
#637=AXIS2_PLACEMENT_3D('',#634,#635,#636);
#638=CIRCLE('',#637,1.25);
#639=EDGE_CURVE('',#633,#633,#638,.T.);
#640=ORIENTED_EDGE('',*,*,#639,.T.);
#641=EDGE_LOOP('',(#640));
#642=FACE_BOUND('',#641,.T.);
#643=CARTESIAN_POINT('',(63.,26.75,-1.));
#644=VERTEX_POINT('',#643);
#645=CARTESIAN_POINT('',(61.75,26.75,-1.));
#646=DIRECTION('',(0.,0.,1.));
#647=DIRECTION('',(1.,0.,-0.));
#648=AXIS2_PLACEMENT_3D('',#645,#646,#647);
#649=CIRCLE('',#648,1.25);
#650=EDGE_CURVE('',#644,#644,#649,.T.);
#651=ORIENTED_EDGE('',*,*,#650,.T.);
#652=EDGE_LOOP('',(#651));
#653=FACE_BOUND('',#652,.T.);
#654=CARTESIAN_POINT('',(63.,3.25,-1.));
#655=VERTEX_POINT('',#654);
#656=CARTESIAN_POINT('',(61.75,3.25,-1.));
#657=DIRECTION('',(0.,0.,1.));
#658=DIRECTION('',(1.,0.,-0.));
#659=AXIS2_PLACEMENT_3D('',#656,#657,#658);
#660=CIRCLE('',#659,1.25);
#661=EDGE_CURVE('',#655,#655,#660,.T.);
#662=ORIENTED_EDGE('',*,*,#661,.T.);
#663=EDGE_LOOP('',(#662));
#664=FACE_BOUND('',#663,.T.);
#665=CARTESIAN_POINT('',(6.8,29.,-1.));
#666=VERTEX_POINT('',#665);
#667=CARTESIAN_POINT('',(58.3,29.,-1.));
#668=VERTEX_POINT('',#667);
#669=CARTESIAN_POINT('',(6.8,29.,-1.));
#670=DIRECTION('',(1.,0.,-0.));
#671=VECTOR('',#670,51.5);
#672=LINE('',#669,#671);
#673=EDGE_CURVE('',#666,#668,#672,.T.);
#674=ORIENTED_EDGE('',*,*,#673,.F.);
#675=CARTESIAN_POINT('',(6.8,24.,-1.));
#676=VERTEX_POINT('',#675);
#677=CARTESIAN_POINT('',(6.8,29.,-1.));
#678=DIRECTION('',(0.,-1.,0.));
#679=VECTOR('',#678,5.);
#680=LINE('',#677,#679);
#681=EDGE_CURVE('',#666,#676,#680,.T.);
#682=ORIENTED_EDGE('',*,*,#681,.T.);
#683=CARTESIAN_POINT('',(58.3,24.,-1.));
#684=VERTEX_POINT('',#683);
#685=CARTESIAN_POINT('',(6.8,24.,-1.));
#686=DIRECTION('',(1.,0.,-0.));
#687=VECTOR('',#686,51.5);
#688=LINE('',#685,#687);
#689=EDGE_CURVE('',#676,#684,#688,.T.);
#690=ORIENTED_EDGE('',*,*,#689,.T.);
#691=CARTESIAN_POINT('',(58.3,29.,-1.));
#692=DIRECTION('',(0.,-1.,0.));
#693=VECTOR('',#692,5.);
#694=LINE('',#691,#693);
#695=EDGE_CURVE('',#668,#684,#694,.T.);
#696=ORIENTED_EDGE('',*,*,#695,.F.);
#697=EDGE_LOOP('',(#674,#682,#690,#696));
#698=FACE_BOUND('',#697,.T.);
#699=ORIENTED_EDGE('',*,*,#429,.T.);
#700=CARTESIAN_POINT('',(63.,28.,-1.));
#701=DIRECTION('',(-0.,-0.,-1.));
#702=DIRECTION('',(1.,0.,-0.));
#703=AXIS2_PLACEMENT_3D('',#700,#701,#702);
#704=CIRCLE('',#703,2.);
#705=EDGE_CURVE('',#416,#591,#704,.T.);
#706=ORIENTED_EDGE('',*,*,#705,.T.);
#707=ORIENTED_EDGE('',*,*,#598,.T.);
#708=CARTESIAN_POINT('',(63.,2.,-1.));
#709=DIRECTION('',(-0.,-0.,-1.));
#710=DIRECTION('',(1.,0.,-0.));
#711=AXIS2_PLACEMENT_3D('',#708,#709,#710);
#712=CIRCLE('',#711,2.);
#713=EDGE_CURVE('',#593,#484,#712,.T.);
#714=ORIENTED_EDGE('',*,*,#713,.T.);
#715=ORIENTED_EDGE('',*,*,#491,.T.);
#716=CARTESIAN_POINT('',(2.,2.,-1.));
#717=DIRECTION('',(-0.,-0.,-1.));
#718=DIRECTION('',(1.,0.,-0.));
#719=AXIS2_PLACEMENT_3D('',#716,#717,#718);
#720=CIRCLE('',#719,2.);
#721=EDGE_CURVE('',#486,#446,#720,.T.);
#722=ORIENTED_EDGE('',*,*,#721,.T.);
#723=ORIENTED_EDGE('',*,*,#453,.T.);
#724=CARTESIAN_POINT('',(2.,28.,-1.));
#725=DIRECTION('',(-0.,-0.,-1.));
#726=DIRECTION('',(1.,0.,-0.));
#727=AXIS2_PLACEMENT_3D('',#724,#725,#726);
#728=CIRCLE('',#727,2.);
#729=EDGE_CURVE('',#448,#424,#728,.T.);
#730=ORIENTED_EDGE('',*,*,#729,.T.);
#731=EDGE_LOOP('',(#699,#706,#707,#714,#715,#722,#723,#730));
#732=FACE_BOUND('',#731,.T.);
#733=ADVANCED_FACE('',(#631,#642,#653,#664,#698,#732),#620,.F.);
#734=CARTESIAN_POINT('',(18.5,4.,5.));
#735=DIRECTION('',(1.,0.,0.));
#736=DIRECTION('',(-0.,1.,0.));
#737=AXIS2_PLACEMENT_3D('',#734,#735,#736);
#738=PLANE('',#737);
#739=ORIENTED_EDGE('',*,*,#259,.F.);
#740=CARTESIAN_POINT('',(18.5,8.,5.));
#741=VERTEX_POINT('',#740);
#742=CARTESIAN_POINT('',(18.5,8.,5.));
#743=DIRECTION('',(0.,0.,-1.));
#744=VECTOR('',#743,5.);
#745=LINE('',#742,#744);
#746=EDGE_CURVE('',#741,#246,#745,.T.);
#747=ORIENTED_EDGE('',*,*,#746,.F.);
#748=CARTESIAN_POINT('',(18.5,8.,5.));
#749=DIRECTION('',(0.,-1.,0.));
#750=VECTOR('',#749,8.);
#751=LINE('',#748,#750);
#752=EDGE_CURVE('',#741,#554,#751,.T.);
#753=ORIENTED_EDGE('',*,*,#752,.T.);
#754=ORIENTED_EDGE('',*,*,#559,.T.);
#755=EDGE_LOOP('',(#739,#747,#753,#754));
#756=FACE_BOUND('',#755,.T.);
#757=ADVANCED_FACE('',(#756),#738,.T.);
#758=CARTESIAN_POINT('',(12.5,8.,5.));
#759=DIRECTION('',(0.,1.,0.));
#760=DIRECTION('',(0.,0.,1.));
#761=AXIS2_PLACEMENT_3D('',#758,#759,#760);
#762=PLANE('',#761);
#763=ORIENTED_EDGE('',*,*,#251,.F.);
#764=CARTESIAN_POINT('',(6.5,8.,5.));
#765=VERTEX_POINT('',#764);
#766=CARTESIAN_POINT('',(6.5,8.,5.));
#767=DIRECTION('',(0.,0.,-1.));
#768=VECTOR('',#767,5.);
#769=LINE('',#766,#768);
#770=EDGE_CURVE('',#765,#238,#769,.T.);
#771=ORIENTED_EDGE('',*,*,#770,.F.);
#772=CARTESIAN_POINT('',(6.5,8.,5.));
#773=DIRECTION('',(1.,0.,-0.));
#774=VECTOR('',#773,12.);
#775=LINE('',#772,#774);
#776=EDGE_CURVE('',#765,#741,#775,.T.);
#777=ORIENTED_EDGE('',*,*,#776,.T.);
#778=ORIENTED_EDGE('',*,*,#746,.T.);
#779=EDGE_LOOP('',(#763,#771,#777,#778));
#780=FACE_BOUND('',#779,.T.);
#781=ADVANCED_FACE('',(#780),#762,.T.);
#782=CARTESIAN_POINT('',(6.5,4.,5.));
#783=DIRECTION('',(-1.,0.,0.));
#784=DIRECTION('',(0.,0.,1.));
#785=AXIS2_PLACEMENT_3D('',#782,#783,#784);
#786=PLANE('',#785);
#787=ORIENTED_EDGE('',*,*,#243,.F.);
#788=ORIENTED_EDGE('',*,*,#573,.F.);
#789=CARTESIAN_POINT('',(6.5,0.,5.));
#790=DIRECTION('',(0.,1.,0.));
#791=VECTOR('',#790,8.);
#792=LINE('',#789,#791);
#793=EDGE_CURVE('',#562,#765,#792,.T.);
#794=ORIENTED_EDGE('',*,*,#793,.T.);
#795=ORIENTED_EDGE('',*,*,#770,.T.);
#796=EDGE_LOOP('',(#787,#788,#794,#795));
#797=FACE_BOUND('',#796,.T.);
#798=ADVANCED_FACE('',(#797),#786,.T.);
#799=CARTESIAN_POINT('',(0.,0.,5.));
#800=DIRECTION('',(0.,0.,1.));
#801=DIRECTION('',(1.,0.,0.));
#802=AXIS2_PLACEMENT_3D('',#799,#800,#801);
#803=PLANE('',#802);
#804=ORIENTED_EDGE('',*,*,#752,.F.);
#805=ORIENTED_EDGE('',*,*,#776,.F.);
#806=ORIENTED_EDGE('',*,*,#793,.F.);
#807=ORIENTED_EDGE('',*,*,#567,.F.);
#808=EDGE_LOOP('',(#804,#805,#806,#807));
#809=FACE_BOUND('',#808,.T.);
#810=ADVANCED_FACE('',(#809),#803,.T.);
#811=CARTESIAN_POINT('',(32.,4.,5.));
#812=DIRECTION('',(1.,0.,0.));
#813=DIRECTION('',(0.,0.,-1.));
#814=AXIS2_PLACEMENT_3D('',#811,#812,#813);
#815=PLANE('',#814);
#816=ORIENTED_EDGE('',*,*,#291,.F.);
#817=CARTESIAN_POINT('',(32.,8.,5.));
#818=VERTEX_POINT('',#817);
#819=CARTESIAN_POINT('',(32.,8.,5.));
#820=DIRECTION('',(0.,0.,-1.));
#821=VECTOR('',#820,5.);
#822=LINE('',#819,#821);
#823=EDGE_CURVE('',#818,#278,#822,.T.);
#824=ORIENTED_EDGE('',*,*,#823,.F.);
#825=CARTESIAN_POINT('',(32.,8.,5.));
#826=DIRECTION('',(0.,-1.,0.));
#827=VECTOR('',#826,8.);
#828=LINE('',#825,#827);
#829=EDGE_CURVE('',#818,#531,#828,.T.);
#830=ORIENTED_EDGE('',*,*,#829,.T.);
#831=ORIENTED_EDGE('',*,*,#536,.T.);
#832=EDGE_LOOP('',(#816,#824,#830,#831));
#833=FACE_BOUND('',#832,.T.);
#834=ADVANCED_FACE('',(#833),#815,.T.);
#835=CARTESIAN_POINT('',(26.,8.,5.));
#836=DIRECTION('',(0.,1.,0.));
#837=DIRECTION('',(0.,0.,1.));
#838=AXIS2_PLACEMENT_3D('',#835,#836,#837);
#839=PLANE('',#838);
#840=ORIENTED_EDGE('',*,*,#283,.F.);
#841=CARTESIAN_POINT('',(20.,8.,5.));
#842=VERTEX_POINT('',#841);
#843=CARTESIAN_POINT('',(20.,8.,5.));
#844=DIRECTION('',(0.,0.,-1.));
#845=VECTOR('',#844,5.);
#846=LINE('',#843,#845);
#847=EDGE_CURVE('',#842,#270,#846,.T.);
#848=ORIENTED_EDGE('',*,*,#847,.F.);
#849=CARTESIAN_POINT('',(20.,8.,5.));
#850=DIRECTION('',(1.,0.,-0.));
#851=VECTOR('',#850,12.);
#852=LINE('',#849,#851);
#853=EDGE_CURVE('',#842,#818,#852,.T.);
#854=ORIENTED_EDGE('',*,*,#853,.T.);
#855=ORIENTED_EDGE('',*,*,#823,.T.);
#856=EDGE_LOOP('',(#840,#848,#854,#855));
#857=FACE_BOUND('',#856,.T.);
#858=ADVANCED_FACE('',(#857),#839,.T.);
#859=CARTESIAN_POINT('',(20.,4.,5.));
#860=DIRECTION('',(-1.,0.,0.));
#861=DIRECTION('',(0.,0.,1.));
#862=AXIS2_PLACEMENT_3D('',#859,#860,#861);
#863=PLANE('',#862);
#864=ORIENTED_EDGE('',*,*,#275,.F.);
#865=ORIENTED_EDGE('',*,*,#550,.F.);
#866=CARTESIAN_POINT('',(20.,0.,5.));
#867=DIRECTION('',(0.,1.,0.));
#868=VECTOR('',#867,8.);
#869=LINE('',#866,#868);
#870=EDGE_CURVE('',#539,#842,#869,.T.);
#871=ORIENTED_EDGE('',*,*,#870,.T.);
#872=ORIENTED_EDGE('',*,*,#847,.T.);
#873=EDGE_LOOP('',(#864,#865,#871,#872));
#874=FACE_BOUND('',#873,.T.);
#875=ADVANCED_FACE('',(#874),#863,.T.);
#876=CARTESIAN_POINT('',(0.,0.,5.));
#877=DIRECTION('',(0.,0.,1.));
#878=DIRECTION('',(1.,0.,0.));
#879=AXIS2_PLACEMENT_3D('',#876,#877,#878);
#880=PLANE('',#879);
#881=ORIENTED_EDGE('',*,*,#829,.F.);
#882=ORIENTED_EDGE('',*,*,#853,.F.);
#883=ORIENTED_EDGE('',*,*,#870,.F.);
#884=ORIENTED_EDGE('',*,*,#544,.F.);
#885=EDGE_LOOP('',(#881,#882,#883,#884));
#886=FACE_BOUND('',#885,.T.);
#887=ADVANCED_FACE('',(#886),#880,.T.);
#888=CARTESIAN_POINT('',(41.5,3.,5.5));
#889=DIRECTION('',(1.,0.,0.));
#890=DIRECTION('',(0.,0.,-1.));
#891=AXIS2_PLACEMENT_3D('',#888,#889,#890);
#892=PLANE('',#891);
#893=ORIENTED_EDGE('',*,*,#323,.F.);
#894=CARTESIAN_POINT('',(41.5,6.,5.5));
#895=VERTEX_POINT('',#894);
#896=CARTESIAN_POINT('',(41.5,6.,5.5));
#897=DIRECTION('',(0.,0.,-1.));
#898=VECTOR('',#897,5.5);
#899=LINE('',#896,#898);
#900=EDGE_CURVE('',#895,#310,#899,.T.);
#901=ORIENTED_EDGE('',*,*,#900,.F.);
#902=CARTESIAN_POINT('',(41.5,6.,5.5));
#903=DIRECTION('',(0.,-1.,0.));
#904=VECTOR('',#903,6.);
#905=LINE('',#902,#904);
#906=EDGE_CURVE('',#895,#508,#905,.T.);
#907=ORIENTED_EDGE('',*,*,#906,.T.);
#908=ORIENTED_EDGE('',*,*,#513,.T.);
#909=EDGE_LOOP('',(#893,#901,#907,#908));
#910=FACE_BOUND('',#909,.T.);
#911=ADVANCED_FACE('',(#910),#892,.T.);
#912=CARTESIAN_POINT('',(37.5,6.,5.5));
#913=DIRECTION('',(0.,1.,0.));
#914=DIRECTION('',(-1.,0.,0.));
#915=AXIS2_PLACEMENT_3D('',#912,#913,#914);
#916=PLANE('',#915);
#917=ORIENTED_EDGE('',*,*,#315,.F.);
#918=CARTESIAN_POINT('',(33.5,6.,5.5));
#919=VERTEX_POINT('',#918);
#920=CARTESIAN_POINT('',(33.5,6.,5.5));
#921=DIRECTION('',(0.,0.,-1.));
#922=VECTOR('',#921,5.5);
#923=LINE('',#920,#922);
#924=EDGE_CURVE('',#919,#302,#923,.T.);
#925=ORIENTED_EDGE('',*,*,#924,.F.);
#926=CARTESIAN_POINT('',(33.5,6.,5.5));
#927=DIRECTION('',(1.,-0.,0.));
#928=VECTOR('',#927,8.);
#929=LINE('',#926,#928);
#930=EDGE_CURVE('',#919,#895,#929,.T.);
#931=ORIENTED_EDGE('',*,*,#930,.T.);
#932=ORIENTED_EDGE('',*,*,#900,.T.);
#933=EDGE_LOOP('',(#917,#925,#931,#932));
#934=FACE_BOUND('',#933,.T.);
#935=ADVANCED_FACE('',(#934),#916,.T.);
#936=CARTESIAN_POINT('',(33.5,3.,5.5));
#937=DIRECTION('',(-1.,0.,0.));
#938=DIRECTION('',(0.,0.,1.));
#939=AXIS2_PLACEMENT_3D('',#936,#937,#938);
#940=PLANE('',#939);
#941=ORIENTED_EDGE('',*,*,#307,.F.);
#942=ORIENTED_EDGE('',*,*,#527,.F.);
#943=CARTESIAN_POINT('',(33.5,0.,5.5));
#944=DIRECTION('',(0.,1.,0.));
#945=VECTOR('',#944,6.);
#946=LINE('',#943,#945);
#947=EDGE_CURVE('',#516,#919,#946,.T.);
#948=ORIENTED_EDGE('',*,*,#947,.T.);
#949=ORIENTED_EDGE('',*,*,#924,.T.);
#950=EDGE_LOOP('',(#941,#942,#948,#949));
#951=FACE_BOUND('',#950,.T.);
#952=ADVANCED_FACE('',(#951),#940,.T.);
#953=CARTESIAN_POINT('',(0.,0.,5.5));
#954=DIRECTION('',(0.,0.,1.));
#955=DIRECTION('',(1.,0.,0.));
#956=AXIS2_PLACEMENT_3D('',#953,#954,#955);
#957=PLANE('',#956);
#958=ORIENTED_EDGE('',*,*,#906,.F.);
#959=ORIENTED_EDGE('',*,*,#930,.F.);
#960=ORIENTED_EDGE('',*,*,#947,.F.);
#961=ORIENTED_EDGE('',*,*,#521,.F.);
#962=EDGE_LOOP('',(#958,#959,#960,#961));
#963=FACE_BOUND('',#962,.T.);
#964=ADVANCED_FACE('',(#963),#957,.T.);
#965=CARTESIAN_POINT('',(55.,14.,5.));
#966=DIRECTION('',(0.,-1.,0.));
#967=DIRECTION('',(0.,0.,-1.));
#968=AXIS2_PLACEMENT_3D('',#965,#966,#967);
#969=PLANE('',#968);
#970=ORIENTED_EDGE('',*,*,#347,.T.);
#971=CARTESIAN_POINT('',(52.,14.,5.));
#972=VERTEX_POINT('',#971);
#973=CARTESIAN_POINT('',(52.,14.,5.));
#974=DIRECTION('',(0.,0.,-1.));
#975=VECTOR('',#974,5.);
#976=LINE('',#973,#975);
#977=EDGE_CURVE('',#972,#334,#976,.T.);
#978=ORIENTED_EDGE('',*,*,#977,.F.);
#979=CARTESIAN_POINT('',(58.,14.,5.));
#980=VERTEX_POINT('',#979);
#981=CARTESIAN_POINT('',(58.,14.,5.));
#982=DIRECTION('',(-1.,0.,0.));
#983=VECTOR('',#982,6.);
#984=LINE('',#981,#983);
#985=EDGE_CURVE('',#980,#972,#984,.T.);
#986=ORIENTED_EDGE('',*,*,#985,.F.);
#987=CARTESIAN_POINT('',(58.,14.,5.));
#988=DIRECTION('',(0.,0.,-1.));
#989=VECTOR('',#988,5.);
#990=LINE('',#987,#989);
#991=EDGE_CURVE('',#980,#342,#990,.T.);
#992=ORIENTED_EDGE('',*,*,#991,.T.);
#993=EDGE_LOOP('',(#970,#978,#986,#992));
#994=FACE_BOUND('',#993,.T.);
#995=ADVANCED_FACE('',(#994),#969,.F.);
#996=CARTESIAN_POINT('',(52.,6.5,5.));
#997=DIRECTION('',(1.,0.,0.));
#998=DIRECTION('',(0.,0.,-1.));
#999=AXIS2_PLACEMENT_3D('',#996,#997,#998);
#1000=PLANE('',#999);
#1001=ORIENTED_EDGE('',*,*,#339,.T.);
#1002=CARTESIAN_POINT('',(52.,-1.,0.));
#1003=VERTEX_POINT('',#1002);
#1004=CARTESIAN_POINT('',(52.,0.,0.));
#1005=DIRECTION('',(0.,-1.,0.));
#1006=VECTOR('',#1005,1.);
#1007=LINE('',#1004,#1006);
#1008=EDGE_CURVE('',#326,#1003,#1007,.T.);
#1009=ORIENTED_EDGE('',*,*,#1008,.T.);
#1010=CARTESIAN_POINT('',(52.,-1.,5.));
#1011=VERTEX_POINT('',#1010);
#1012=CARTESIAN_POINT('',(52.,-1.,5.));
#1013=DIRECTION('',(0.,0.,-1.));
#1014=VECTOR('',#1013,5.);
#1015=LINE('',#1012,#1014);
#1016=EDGE_CURVE('',#1011,#1003,#1015,.T.);
#1017=ORIENTED_EDGE('',*,*,#1016,.F.);
#1018=CARTESIAN_POINT('',(52.,14.,5.));
#1019=DIRECTION('',(0.,-1.,0.));
#1020=VECTOR('',#1019,15.);
#1021=LINE('',#1018,#1020);
#1022=EDGE_CURVE('',#972,#1011,#1021,.T.);
#1023=ORIENTED_EDGE('',*,*,#1022,.F.);
#1024=ORIENTED_EDGE('',*,*,#977,.T.);
#1025=EDGE_LOOP('',(#1001,#1009,#1017,#1023,#1024));
#1026=FACE_BOUND('',#1025,.T.);
#1027=ADVANCED_FACE('',(#1026),#1000,.F.);
#1028=CARTESIAN_POINT('',(55.,-1.,5.));
#1029=DIRECTION('',(-0.,1.,0.));
#1030=DIRECTION('',(-1.,-0.,0.));
#1031=AXIS2_PLACEMENT_3D('',#1028,#1029,#1030);
#1032=PLANE('',#1031);
#1033=CARTESIAN_POINT('',(58.,-1.,0.));
#1034=VERTEX_POINT('',#1033);
#1035=CARTESIAN_POINT('',(52.,-1.,0.));
#1036=DIRECTION('',(1.,0.,0.));
#1037=VECTOR('',#1036,6.);
#1038=LINE('',#1035,#1037);
#1039=EDGE_CURVE('',#1003,#1034,#1038,.T.);
#1040=ORIENTED_EDGE('',*,*,#1039,.T.);
#1041=CARTESIAN_POINT('',(58.,-1.,5.));
#1042=VERTEX_POINT('',#1041);
#1043=CARTESIAN_POINT('',(58.,-1.,5.));
#1044=DIRECTION('',(0.,0.,-1.));
#1045=VECTOR('',#1044,5.);
#1046=LINE('',#1043,#1045);
#1047=EDGE_CURVE('',#1042,#1034,#1046,.T.);
#1048=ORIENTED_EDGE('',*,*,#1047,.F.);
#1049=CARTESIAN_POINT('',(52.,-1.,5.));
#1050=DIRECTION('',(1.,0.,0.));
#1051=VECTOR('',#1050,6.);
#1052=LINE('',#1049,#1051);
#1053=EDGE_CURVE('',#1011,#1042,#1052,.T.);
#1054=ORIENTED_EDGE('',*,*,#1053,.F.);
#1055=ORIENTED_EDGE('',*,*,#1016,.T.);
#1056=EDGE_LOOP('',(#1040,#1048,#1054,#1055));
#1057=FACE_BOUND('',#1056,.T.);
#1058=ADVANCED_FACE('',(#1057),#1032,.F.);
#1059=CARTESIAN_POINT('',(58.,6.5,5.));
#1060=DIRECTION('',(-1.,0.,0.));
#1061=DIRECTION('',(0.,0.,1.));
#1062=AXIS2_PLACEMENT_3D('',#1059,#1060,#1061);
#1063=PLANE('',#1062);
#1064=CARTESIAN_POINT('',(58.,-1.,0.));
#1065=DIRECTION('',(0.,1.,0.));
#1066=VECTOR('',#1065,1.);
#1067=LINE('',#1064,#1066);
#1068=EDGE_CURVE('',#1034,#350,#1067,.T.);
#1069=ORIENTED_EDGE('',*,*,#1068,.T.);
#1070=ORIENTED_EDGE('',*,*,#355,.T.);
#1071=ORIENTED_EDGE('',*,*,#991,.F.);
#1072=CARTESIAN_POINT('',(58.,-1.,5.));
#1073=DIRECTION('',(0.,1.,0.));
#1074=VECTOR('',#1073,15.);
#1075=LINE('',#1072,#1074);
#1076=EDGE_CURVE('',#1042,#980,#1075,.T.);
#1077=ORIENTED_EDGE('',*,*,#1076,.F.);
#1078=ORIENTED_EDGE('',*,*,#1047,.T.);
#1079=EDGE_LOOP('',(#1069,#1070,#1071,#1077,#1078));
#1080=FACE_BOUND('',#1079,.T.);
#1081=ADVANCED_FACE('',(#1080),#1063,.F.);
#1082=CARTESIAN_POINT('',(0.,0.,5.));
#1083=DIRECTION('',(0.,0.,1.));
#1084=DIRECTION('',(1.,0.,0.));
#1085=AXIS2_PLACEMENT_3D('',#1082,#1083,#1084);
#1086=PLANE('',#1085);
#1087=ORIENTED_EDGE('',*,*,#985,.T.);
#1088=ORIENTED_EDGE('',*,*,#1022,.T.);
#1089=ORIENTED_EDGE('',*,*,#1053,.T.);
#1090=ORIENTED_EDGE('',*,*,#1076,.T.);
#1091=EDGE_LOOP('',(#1087,#1088,#1089,#1090));
#1092=FACE_BOUND('',#1091,.T.);
#1093=ADVANCED_FACE('',(#1092),#1086,.T.);
#1094=CARTESIAN_POINT('',(0.,0.,0.));
#1095=DIRECTION('',(0.,0.,1.));
#1096=DIRECTION('',(1.,0.,0.));
#1097=AXIS2_PLACEMENT_3D('',#1094,#1095,#1096);
#1098=PLANE('',#1097);
#1099=ORIENTED_EDGE('',*,*,#504,.F.);
#1100=ORIENTED_EDGE('',*,*,#1068,.F.);
#1101=ORIENTED_EDGE('',*,*,#1039,.F.);
#1102=ORIENTED_EDGE('',*,*,#1008,.F.);
#1103=EDGE_LOOP('',(#1099,#1100,#1101,#1102));
#1104=FACE_BOUND('',#1103,.T.);
#1105=ADVANCED_FACE('',(#1104),#1098,.F.);
#1106=CARTESIAN_POINT('',(2.,17.,2.5));
#1107=DIRECTION('',(0.,-1.,0.));
#1108=DIRECTION('',(0.,0.,-1.));
#1109=AXIS2_PLACEMENT_3D('',#1106,#1107,#1108);
#1110=PLANE('',#1109);
#1111=ORIENTED_EDGE('',*,*,#194,.T.);
#1112=CARTESIAN_POINT('',(-0.5,17.,0.));
#1113=VERTEX_POINT('',#1112);
#1114=CARTESIAN_POINT('',(0.,17.,0.));
#1115=DIRECTION('',(-1.,0.,0.));
#1116=VECTOR('',#1115,0.5);
#1117=LINE('',#1114,#1116);
#1118=EDGE_CURVE('',#181,#1113,#1117,.T.);
#1119=ORIENTED_EDGE('',*,*,#1118,.T.);
#1120=CARTESIAN_POINT('',(-0.5,17.,2.5));
#1121=VERTEX_POINT('',#1120);
#1122=CARTESIAN_POINT('',(-0.5,17.,2.5));
#1123=DIRECTION('',(0.,0.,-1.));
#1124=VECTOR('',#1123,2.5);
#1125=LINE('',#1122,#1124);
#1126=EDGE_CURVE('',#1121,#1113,#1125,.T.);
#1127=ORIENTED_EDGE('',*,*,#1126,.F.);
#1128=CARTESIAN_POINT('',(4.5,17.,2.5));
#1129=VERTEX_POINT('',#1128);
#1130=CARTESIAN_POINT('',(4.5,17.,2.5));
#1131=DIRECTION('',(-1.,0.,0.));
#1132=VECTOR('',#1131,5.);
#1133=LINE('',#1130,#1132);
#1134=EDGE_CURVE('',#1129,#1121,#1133,.T.);
#1135=ORIENTED_EDGE('',*,*,#1134,.F.);
#1136=CARTESIAN_POINT('',(4.5,17.,2.5));
#1137=DIRECTION('',(0.,0.,-1.));
#1138=VECTOR('',#1137,2.5);
#1139=LINE('',#1136,#1138);
#1140=EDGE_CURVE('',#1129,#189,#1139,.T.);
#1141=ORIENTED_EDGE('',*,*,#1140,.T.);
#1142=EDGE_LOOP('',(#1111,#1119,#1127,#1135,#1141));
#1143=FACE_BOUND('',#1142,.T.);
#1144=ADVANCED_FACE('',(#1143),#1110,.F.);
#1145=CARTESIAN_POINT('',(-0.5,13.25,2.5));
#1146=DIRECTION('',(1.,0.,0.));
#1147=DIRECTION('',(-0.,1.,0.));
#1148=AXIS2_PLACEMENT_3D('',#1145,#1146,#1147);
#1149=PLANE('',#1148);
#1150=CARTESIAN_POINT('',(-0.5,9.5,0.));
#1151=VERTEX_POINT('',#1150);
#1152=CARTESIAN_POINT('',(-0.5,17.,0.));
#1153=DIRECTION('',(0.,-1.,0.));
#1154=VECTOR('',#1153,7.5);
#1155=LINE('',#1152,#1154);
#1156=EDGE_CURVE('',#1113,#1151,#1155,.T.);
#1157=ORIENTED_EDGE('',*,*,#1156,.T.);
#1158=CARTESIAN_POINT('',(-0.5,9.5,2.5));
#1159=VERTEX_POINT('',#1158);
#1160=CARTESIAN_POINT('',(-0.5,9.5,2.5));
#1161=DIRECTION('',(0.,0.,-1.));
#1162=VECTOR('',#1161,2.5);
#1163=LINE('',#1160,#1162);
#1164=EDGE_CURVE('',#1159,#1151,#1163,.T.);
#1165=ORIENTED_EDGE('',*,*,#1164,.F.);
#1166=CARTESIAN_POINT('',(-0.5,17.,2.5));
#1167=DIRECTION('',(0.,-1.,0.));
#1168=VECTOR('',#1167,7.5);
#1169=LINE('',#1166,#1168);
#1170=EDGE_CURVE('',#1121,#1159,#1169,.T.);
#1171=ORIENTED_EDGE('',*,*,#1170,.F.);
#1172=ORIENTED_EDGE('',*,*,#1126,.T.);
#1173=EDGE_LOOP('',(#1157,#1165,#1171,#1172));
#1174=FACE_BOUND('',#1173,.T.);
#1175=ADVANCED_FACE('',(#1174),#1149,.F.);
#1176=CARTESIAN_POINT('',(2.,9.5,2.5));
#1177=DIRECTION('',(0.,1.,0.));
#1178=DIRECTION('',(0.,0.,1.));
#1179=AXIS2_PLACEMENT_3D('',#1176,#1177,#1178);
#1180=PLANE('',#1179);
#1181=CARTESIAN_POINT('',(-0.5,9.5,0.));
#1182=DIRECTION('',(1.,0.,-0.));
#1183=VECTOR('',#1182,0.5);
#1184=LINE('',#1181,#1183);
#1185=EDGE_CURVE('',#1151,#205,#1184,.T.);
#1186=ORIENTED_EDGE('',*,*,#1185,.T.);
#1187=ORIENTED_EDGE('',*,*,#210,.T.);
#1188=CARTESIAN_POINT('',(4.5,9.5,2.5));
#1189=VERTEX_POINT('',#1188);
#1190=CARTESIAN_POINT('',(4.5,9.5,2.5));
#1191=DIRECTION('',(0.,0.,-1.));
#1192=VECTOR('',#1191,2.5);
#1193=LINE('',#1190,#1192);
#1194=EDGE_CURVE('',#1189,#197,#1193,.T.);
#1195=ORIENTED_EDGE('',*,*,#1194,.F.);
#1196=CARTESIAN_POINT('',(-0.5,9.5,2.5));
#1197=DIRECTION('',(1.,0.,-0.));
#1198=VECTOR('',#1197,5.);
#1199=LINE('',#1196,#1198);
#1200=EDGE_CURVE('',#1159,#1189,#1199,.T.);
#1201=ORIENTED_EDGE('',*,*,#1200,.F.);
#1202=ORIENTED_EDGE('',*,*,#1164,.T.);
#1203=EDGE_LOOP('',(#1186,#1187,#1195,#1201,#1202));
#1204=FACE_BOUND('',#1203,.T.);
#1205=ADVANCED_FACE('',(#1204),#1180,.F.);
#1206=CARTESIAN_POINT('',(4.5,13.25,2.5));
#1207=DIRECTION('',(-1.,0.,0.));
#1208=DIRECTION('',(0.,0.,1.));
#1209=AXIS2_PLACEMENT_3D('',#1206,#1207,#1208);
#1210=PLANE('',#1209);
#1211=ORIENTED_EDGE('',*,*,#202,.T.);
#1212=ORIENTED_EDGE('',*,*,#1140,.F.);
#1213=CARTESIAN_POINT('',(4.5,9.5,2.5));
#1214=DIRECTION('',(0.,1.,0.));
#1215=VECTOR('',#1214,7.5);
#1216=LINE('',#1213,#1215);
#1217=EDGE_CURVE('',#1189,#1129,#1216,.T.);
#1218=ORIENTED_EDGE('',*,*,#1217,.F.);
#1219=ORIENTED_EDGE('',*,*,#1194,.T.);
#1220=EDGE_LOOP('',(#1211,#1212,#1218,#1219));
#1221=FACE_BOUND('',#1220,.T.);
#1222=ADVANCED_FACE('',(#1221),#1210,.F.);
#1223=CARTESIAN_POINT('',(0.,0.,2.5));
#1224=DIRECTION('',(0.,0.,1.));
#1225=DIRECTION('',(1.,0.,0.));
#1226=AXIS2_PLACEMENT_3D('',#1223,#1224,#1225);
#1227=PLANE('',#1226);
#1228=ORIENTED_EDGE('',*,*,#1134,.T.);
#1229=ORIENTED_EDGE('',*,*,#1170,.T.);
#1230=ORIENTED_EDGE('',*,*,#1200,.T.);
#1231=ORIENTED_EDGE('',*,*,#1217,.T.);
#1232=EDGE_LOOP('',(#1228,#1229,#1230,#1231));
#1233=FACE_BOUND('',#1232,.T.);
#1234=ADVANCED_FACE('',(#1233),#1227,.T.);
#1235=CARTESIAN_POINT('',(0.,0.,0.));
#1236=DIRECTION('',(0.,0.,1.));
#1237=DIRECTION('',(1.,0.,0.));
#1238=AXIS2_PLACEMENT_3D('',#1235,#1236,#1237);
#1239=PLANE('',#1238);
#1240=ORIENTED_EDGE('',*,*,#466,.F.);
#1241=ORIENTED_EDGE('',*,*,#1185,.F.);
#1242=ORIENTED_EDGE('',*,*,#1156,.F.);
#1243=ORIENTED_EDGE('',*,*,#1118,.F.);
#1244=EDGE_LOOP('',(#1240,#1241,#1242,#1243));
#1245=FACE_BOUND('',#1244,.T.);
#1246=ADVANCED_FACE('',(#1245),#1239,.F.);
#1247=CARTESIAN_POINT('',(16.5,15.,5.));
#1248=DIRECTION('',(0.,-1.,0.));
#1249=DIRECTION('',(0.,0.,-1.));
#1250=AXIS2_PLACEMENT_3D('',#1247,#1248,#1249);
#1251=PLANE('',#1250);
#1252=ORIENTED_EDGE('',*,*,#118,.F.);
#1253=CARTESIAN_POINT('',(19.5,15.,5.));
#1254=VERTEX_POINT('',#1253);
#1255=CARTESIAN_POINT('',(19.5,15.,5.));
#1256=DIRECTION('',(0.,0.,-1.));
#1257=VECTOR('',#1256,5.);
#1258=LINE('',#1255,#1257);
#1259=EDGE_CURVE('',#1254,#111,#1258,.T.);
#1260=ORIENTED_EDGE('',*,*,#1259,.F.);
#1261=CARTESIAN_POINT('',(13.5,15.,5.));
#1262=VERTEX_POINT('',#1261);
#1263=CARTESIAN_POINT('',(19.5,15.,5.));
#1264=DIRECTION('',(-1.,0.,0.));
#1265=VECTOR('',#1264,6.);
#1266=LINE('',#1263,#1265);
#1267=EDGE_CURVE('',#1254,#1262,#1266,.T.);
#1268=ORIENTED_EDGE('',*,*,#1267,.T.);
#1269=CARTESIAN_POINT('',(13.5,15.,5.));
#1270=DIRECTION('',(0.,0.,-1.));
#1271=VECTOR('',#1270,5.);
#1272=LINE('',#1269,#1271);
#1273=EDGE_CURVE('',#1262,#113,#1272,.T.);
#1274=ORIENTED_EDGE('',*,*,#1273,.T.);
#1275=EDGE_LOOP('',(#1252,#1260,#1268,#1274));
#1276=FACE_BOUND('',#1275,.T.);
#1277=ADVANCED_FACE('',(#1276),#1251,.T.);
#1278=CARTESIAN_POINT('',(19.5,18.,5.));
#1279=DIRECTION('',(1.,0.,0.));
#1280=DIRECTION('',(-0.,1.,0.));
#1281=AXIS2_PLACEMENT_3D('',#1278,#1279,#1280);
#1282=PLANE('',#1281);
#1283=ORIENTED_EDGE('',*,*,#140,.F.);
#1284=CARTESIAN_POINT('',(19.5,21.,5.));
#1285=VERTEX_POINT('',#1284);
#1286=CARTESIAN_POINT('',(19.5,21.,5.));
#1287=DIRECTION('',(0.,0.,-1.));
#1288=VECTOR('',#1287,5.);
#1289=LINE('',#1286,#1288);
#1290=EDGE_CURVE('',#1285,#129,#1289,.T.);
#1291=ORIENTED_EDGE('',*,*,#1290,.F.);
#1292=CARTESIAN_POINT('',(19.5,21.,5.));
#1293=DIRECTION('',(0.,-1.,0.));
#1294=VECTOR('',#1293,6.);
#1295=LINE('',#1292,#1294);
#1296=EDGE_CURVE('',#1285,#1254,#1295,.T.);
#1297=ORIENTED_EDGE('',*,*,#1296,.T.);
#1298=ORIENTED_EDGE('',*,*,#1259,.T.);
#1299=EDGE_LOOP('',(#1283,#1291,#1297,#1298));
#1300=FACE_BOUND('',#1299,.T.);
#1301=ADVANCED_FACE('',(#1300),#1282,.T.);
#1302=CARTESIAN_POINT('',(16.5,21.,5.));
#1303=DIRECTION('',(0.,1.,0.));
#1304=DIRECTION('',(0.,0.,1.));
#1305=AXIS2_PLACEMENT_3D('',#1302,#1303,#1304);
#1306=PLANE('',#1305);
#1307=ORIENTED_EDGE('',*,*,#134,.F.);
#1308=CARTESIAN_POINT('',(13.5,21.,5.));
#1309=VERTEX_POINT('',#1308);
#1310=CARTESIAN_POINT('',(13.5,21.,5.));
#1311=DIRECTION('',(0.,0.,-1.));
#1312=VECTOR('',#1311,5.);
#1313=LINE('',#1310,#1312);
#1314=EDGE_CURVE('',#1309,#121,#1313,.T.);
#1315=ORIENTED_EDGE('',*,*,#1314,.F.);
#1316=CARTESIAN_POINT('',(13.5,21.,5.));
#1317=DIRECTION('',(1.,0.,-0.));
#1318=VECTOR('',#1317,6.);
#1319=LINE('',#1316,#1318);
#1320=EDGE_CURVE('',#1309,#1285,#1319,.T.);
#1321=ORIENTED_EDGE('',*,*,#1320,.T.);
#1322=ORIENTED_EDGE('',*,*,#1290,.T.);
#1323=EDGE_LOOP('',(#1307,#1315,#1321,#1322));
#1324=FACE_BOUND('',#1323,.T.);
#1325=ADVANCED_FACE('',(#1324),#1306,.T.);
#1326=CARTESIAN_POINT('',(13.5,18.,5.));
#1327=DIRECTION('',(1.,0.,0.));
#1328=DIRECTION('',(-0.,1.,0.));
#1329=AXIS2_PLACEMENT_3D('',#1326,#1327,#1328);
#1330=PLANE('',#1329);
#1331=ORIENTED_EDGE('',*,*,#126,.T.);
#1332=ORIENTED_EDGE('',*,*,#1273,.F.);
#1333=CARTESIAN_POINT('',(13.5,21.,5.));
#1334=DIRECTION('',(0.,-1.,0.));
#1335=VECTOR('',#1334,6.);
#1336=LINE('',#1333,#1335);
#1337=EDGE_CURVE('',#1309,#1262,#1336,.T.);
#1338=ORIENTED_EDGE('',*,*,#1337,.F.);
#1339=ORIENTED_EDGE('',*,*,#1314,.T.);
#1340=EDGE_LOOP('',(#1331,#1332,#1338,#1339));
#1341=FACE_BOUND('',#1340,.T.);
#1342=ADVANCED_FACE('',(#1341),#1330,.F.);
#1343=CARTESIAN_POINT('',(0.,0.,5.));
#1344=DIRECTION('',(0.,0.,1.));
#1345=DIRECTION('',(1.,0.,0.));
#1346=AXIS2_PLACEMENT_3D('',#1343,#1344,#1345);
#1347=PLANE('',#1346);
#1348=ORIENTED_EDGE('',*,*,#1267,.F.);
#1349=ORIENTED_EDGE('',*,*,#1296,.F.);
#1350=ORIENTED_EDGE('',*,*,#1320,.F.);
#1351=ORIENTED_EDGE('',*,*,#1337,.T.);
#1352=EDGE_LOOP('',(#1348,#1349,#1350,#1351));
#1353=FACE_BOUND('',#1352,.T.);
#1354=ADVANCED_FACE('',(#1353),#1347,.T.);
#1355=CARTESIAN_POINT('',(0.5,21.5,1.));
#1356=DIRECTION('',(-1.,0.,0.));
#1357=DIRECTION('',(0.,0.,1.));
#1358=AXIS2_PLACEMENT_3D('',#1355,#1356,#1357);
#1359=PLANE('',#1358);
#1360=ORIENTED_EDGE('',*,*,#84,.F.);
#1361=CARTESIAN_POINT('',(0.5,20.,1.));
#1362=VERTEX_POINT('',#1361);
#1363=CARTESIAN_POINT('',(0.5,20.,1.));
#1364=DIRECTION('',(0.,0.,-1.));
#1365=VECTOR('',#1364,1.);
#1366=LINE('',#1363,#1365);
#1367=EDGE_CURVE('',#1362,#77,#1366,.T.);
#1368=ORIENTED_EDGE('',*,*,#1367,.F.);
#1369=CARTESIAN_POINT('',(0.5,23.,1.));
#1370=VERTEX_POINT('',#1369);
#1371=CARTESIAN_POINT('',(0.5,20.,1.));
#1372=DIRECTION('',(0.,1.,0.));
#1373=VECTOR('',#1372,3.);
#1374=LINE('',#1371,#1373);
#1375=EDGE_CURVE('',#1362,#1370,#1374,.T.);
#1376=ORIENTED_EDGE('',*,*,#1375,.T.);
#1377=CARTESIAN_POINT('',(0.5,23.,1.));
#1378=DIRECTION('',(0.,0.,-1.));
#1379=VECTOR('',#1378,1.);
#1380=LINE('',#1377,#1379);
#1381=EDGE_CURVE('',#1370,#79,#1380,.T.);
#1382=ORIENTED_EDGE('',*,*,#1381,.T.);
#1383=EDGE_LOOP('',(#1360,#1368,#1376,#1382));
#1384=FACE_BOUND('',#1383,.T.);
#1385=ADVANCED_FACE('',(#1384),#1359,.T.);
#1386=CARTESIAN_POINT('',(2.5,20.,1.));
#1387=DIRECTION('',(0.,-1.,0.));
#1388=DIRECTION('',(0.,0.,-1.));
#1389=AXIS2_PLACEMENT_3D('',#1386,#1387,#1388);
#1390=PLANE('',#1389);
#1391=ORIENTED_EDGE('',*,*,#106,.F.);
#1392=CARTESIAN_POINT('',(4.5,20.,1.));
#1393=VERTEX_POINT('',#1392);
#1394=CARTESIAN_POINT('',(4.5,20.,1.));
#1395=DIRECTION('',(0.,0.,-1.));
#1396=VECTOR('',#1395,1.);
#1397=LINE('',#1394,#1396);
#1398=EDGE_CURVE('',#1393,#95,#1397,.T.);
#1399=ORIENTED_EDGE('',*,*,#1398,.F.);
#1400=CARTESIAN_POINT('',(4.5,20.,1.));
#1401=DIRECTION('',(-1.,0.,0.));
#1402=VECTOR('',#1401,4.);
#1403=LINE('',#1400,#1402);
#1404=EDGE_CURVE('',#1393,#1362,#1403,.T.);
#1405=ORIENTED_EDGE('',*,*,#1404,.T.);
#1406=ORIENTED_EDGE('',*,*,#1367,.T.);
#1407=EDGE_LOOP('',(#1391,#1399,#1405,#1406));
#1408=FACE_BOUND('',#1407,.T.);
#1409=ADVANCED_FACE('',(#1408),#1390,.T.);
#1410=CARTESIAN_POINT('',(4.5,21.5,1.));
#1411=DIRECTION('',(1.,0.,0.));
#1412=DIRECTION('',(0.,0.,-1.));
#1413=AXIS2_PLACEMENT_3D('',#1410,#1411,#1412);
#1414=PLANE('',#1413);
#1415=ORIENTED_EDGE('',*,*,#100,.F.);
#1416=CARTESIAN_POINT('',(4.5,23.,1.));
#1417=VERTEX_POINT('',#1416);
#1418=CARTESIAN_POINT('',(4.5,23.,1.));
#1419=DIRECTION('',(0.,0.,-1.));
#1420=VECTOR('',#1419,1.);
#1421=LINE('',#1418,#1420);
#1422=EDGE_CURVE('',#1417,#87,#1421,.T.);
#1423=ORIENTED_EDGE('',*,*,#1422,.F.);
#1424=CARTESIAN_POINT('',(4.5,23.,1.));
#1425=DIRECTION('',(0.,-1.,0.));
#1426=VECTOR('',#1425,3.);
#1427=LINE('',#1424,#1426);
#1428=EDGE_CURVE('',#1417,#1393,#1427,.T.);
#1429=ORIENTED_EDGE('',*,*,#1428,.T.);
#1430=ORIENTED_EDGE('',*,*,#1398,.T.);
#1431=EDGE_LOOP('',(#1415,#1423,#1429,#1430));
#1432=FACE_BOUND('',#1431,.T.);
#1433=ADVANCED_FACE('',(#1432),#1414,.T.);
#1434=CARTESIAN_POINT('',(2.5,23.,1.));
#1435=DIRECTION('',(0.,1.,0.));
#1436=DIRECTION('',(0.,0.,1.));
#1437=AXIS2_PLACEMENT_3D('',#1434,#1435,#1436);
#1438=PLANE('',#1437);
#1439=ORIENTED_EDGE('',*,*,#92,.F.);
#1440=ORIENTED_EDGE('',*,*,#1381,.F.);
#1441=CARTESIAN_POINT('',(0.5,23.,1.));
#1442=DIRECTION('',(1.,0.,-0.));
#1443=VECTOR('',#1442,4.);
#1444=LINE('',#1441,#1443);
#1445=EDGE_CURVE('',#1370,#1417,#1444,.T.);
#1446=ORIENTED_EDGE('',*,*,#1445,.T.);
#1447=ORIENTED_EDGE('',*,*,#1422,.T.);
#1448=EDGE_LOOP('',(#1439,#1440,#1446,#1447));
#1449=FACE_BOUND('',#1448,.T.);
#1450=ADVANCED_FACE('',(#1449),#1438,.T.);
#1451=CARTESIAN_POINT('',(-0.5,0.,1.));
#1452=DIRECTION('',(0.,0.,1.));
#1453=DIRECTION('',(1.,0.,0.));
#1454=AXIS2_PLACEMENT_3D('',#1451,#1452,#1453);
#1455=PLANE('',#1454);
#1456=ORIENTED_EDGE('',*,*,#1375,.F.);
#1457=ORIENTED_EDGE('',*,*,#1404,.F.);
#1458=ORIENTED_EDGE('',*,*,#1428,.F.);
#1459=ORIENTED_EDGE('',*,*,#1445,.F.);
#1460=EDGE_LOOP('',(#1456,#1457,#1458,#1459));
#1461=FACE_BOUND('',#1460,.T.);
#1462=ADVANCED_FACE('',(#1461),#1455,.T.);
#1463=CARTESIAN_POINT('',(62.5,20.,1.));
#1464=DIRECTION('',(0.,1.,0.));
#1465=DIRECTION('',(0.,0.,1.));
#1466=AXIS2_PLACEMENT_3D('',#1463,#1464,#1465);
#1467=PLANE('',#1466);
#1468=ORIENTED_EDGE('',*,*,#390,.T.);
#1469=CARTESIAN_POINT('',(64.5,20.,1.));
#1470=VERTEX_POINT('',#1469);
#1471=CARTESIAN_POINT('',(64.5,20.,1.));
#1472=DIRECTION('',(0.,0.,-1.));
#1473=VECTOR('',#1472,1.);
#1474=LINE('',#1471,#1473);
#1475=EDGE_CURVE('',#1470,#375,#1474,.T.);
#1476=ORIENTED_EDGE('',*,*,#1475,.F.);
#1477=CARTESIAN_POINT('',(60.5,20.,1.));
#1478=VERTEX_POINT('',#1477);
#1479=CARTESIAN_POINT('',(60.5,20.,1.));
#1480=DIRECTION('',(1.,0.,-0.));
#1481=VECTOR('',#1480,4.);
#1482=LINE('',#1479,#1481);
#1483=EDGE_CURVE('',#1478,#1470,#1482,.T.);
#1484=ORIENTED_EDGE('',*,*,#1483,.F.);
#1485=CARTESIAN_POINT('',(60.5,20.,1.));
#1486=DIRECTION('',(0.,0.,-1.));
#1487=VECTOR('',#1486,1.);
#1488=LINE('',#1485,#1487);
#1489=EDGE_CURVE('',#1478,#385,#1488,.T.);
#1490=ORIENTED_EDGE('',*,*,#1489,.T.);
#1491=EDGE_LOOP('',(#1468,#1476,#1484,#1490));
#1492=FACE_BOUND('',#1491,.T.);
#1493=ADVANCED_FACE('',(#1492),#1467,.F.);
#1494=CARTESIAN_POINT('',(64.5,21.5,1.));
#1495=DIRECTION('',(-1.,0.,0.));
#1496=DIRECTION('',(0.,0.,1.));
#1497=AXIS2_PLACEMENT_3D('',#1494,#1495,#1496);
#1498=PLANE('',#1497);
#1499=ORIENTED_EDGE('',*,*,#382,.T.);
#1500=CARTESIAN_POINT('',(64.5,23.,1.));
#1501=VERTEX_POINT('',#1500);
#1502=CARTESIAN_POINT('',(64.5,23.,1.));
#1503=DIRECTION('',(0.,0.,-1.));
#1504=VECTOR('',#1503,1.);
#1505=LINE('',#1502,#1504);
#1506=EDGE_CURVE('',#1501,#377,#1505,.T.);
#1507=ORIENTED_EDGE('',*,*,#1506,.F.);
#1508=CARTESIAN_POINT('',(64.5,20.,1.));
#1509=DIRECTION('',(0.,1.,0.));
#1510=VECTOR('',#1509,3.);
#1511=LINE('',#1508,#1510);
#1512=EDGE_CURVE('',#1470,#1501,#1511,.T.);
#1513=ORIENTED_EDGE('',*,*,#1512,.F.);
#1514=ORIENTED_EDGE('',*,*,#1475,.T.);
#1515=EDGE_LOOP('',(#1499,#1507,#1513,#1514));
#1516=FACE_BOUND('',#1515,.T.);
#1517=ADVANCED_FACE('',(#1516),#1498,.F.);
#1518=CARTESIAN_POINT('',(62.5,23.,1.));
#1519=DIRECTION('',(0.,-1.,0.));
#1520=DIRECTION('',(0.,0.,-1.));
#1521=AXIS2_PLACEMENT_3D('',#1518,#1519,#1520);
#1522=PLANE('',#1521);
#1523=ORIENTED_EDGE('',*,*,#404,.T.);
#1524=CARTESIAN_POINT('',(60.5,23.,1.));
#1525=VERTEX_POINT('',#1524);
#1526=CARTESIAN_POINT('',(60.5,23.,1.));
#1527=DIRECTION('',(0.,0.,-1.));
#1528=VECTOR('',#1527,1.);
#1529=LINE('',#1526,#1528);
#1530=EDGE_CURVE('',#1525,#393,#1529,.T.);
#1531=ORIENTED_EDGE('',*,*,#1530,.F.);
#1532=CARTESIAN_POINT('',(64.5,23.,1.));
#1533=DIRECTION('',(-1.,0.,0.));
#1534=VECTOR('',#1533,4.);
#1535=LINE('',#1532,#1534);
#1536=EDGE_CURVE('',#1501,#1525,#1535,.T.);
#1537=ORIENTED_EDGE('',*,*,#1536,.F.);
#1538=ORIENTED_EDGE('',*,*,#1506,.T.);
#1539=EDGE_LOOP('',(#1523,#1531,#1537,#1538));
#1540=FACE_BOUND('',#1539,.T.);
#1541=ADVANCED_FACE('',(#1540),#1522,.F.);
#1542=CARTESIAN_POINT('',(60.5,21.5,1.));
#1543=DIRECTION('',(1.,0.,0.));
#1544=DIRECTION('',(0.,0.,-1.));
#1545=AXIS2_PLACEMENT_3D('',#1542,#1543,#1544);
#1546=PLANE('',#1545);
#1547=ORIENTED_EDGE('',*,*,#398,.T.);
#1548=ORIENTED_EDGE('',*,*,#1489,.F.);
#1549=CARTESIAN_POINT('',(60.5,23.,1.));
#1550=DIRECTION('',(0.,-1.,0.));
#1551=VECTOR('',#1550,3.);
#1552=LINE('',#1549,#1551);
#1553=EDGE_CURVE('',#1525,#1478,#1552,.T.);
#1554=ORIENTED_EDGE('',*,*,#1553,.F.);
#1555=ORIENTED_EDGE('',*,*,#1530,.T.);
#1556=EDGE_LOOP('',(#1547,#1548,#1554,#1555));
#1557=FACE_BOUND('',#1556,.T.);
#1558=ADVANCED_FACE('',(#1557),#1546,.F.);
#1559=CARTESIAN_POINT('',(0.,0.,1.));
#1560=DIRECTION('',(0.,0.,1.));
#1561=DIRECTION('',(1.,0.,0.));
#1562=AXIS2_PLACEMENT_3D('',#1559,#1560,#1561);
#1563=PLANE('',#1562);
#1564=ORIENTED_EDGE('',*,*,#1483,.T.);
#1565=ORIENTED_EDGE('',*,*,#1512,.T.);
#1566=ORIENTED_EDGE('',*,*,#1536,.T.);
#1567=ORIENTED_EDGE('',*,*,#1553,.T.);
#1568=EDGE_LOOP('',(#1564,#1565,#1566,#1567));
#1569=FACE_BOUND('',#1568,.T.);
#1570=ADVANCED_FACE('',(#1569),#1563,.T.);
#1571=CARTESIAN_POINT('',(6.8,26.5,-9.5));
#1572=DIRECTION('',(-1.,0.,0.));
#1573=DIRECTION('',(0.,0.,1.));
#1574=AXIS2_PLACEMENT_3D('',#1571,#1572,#1573);
#1575=PLANE('',#1574);
#1576=ORIENTED_EDGE('',*,*,#681,.F.);
#1577=CARTESIAN_POINT('',(6.8,29.,-9.5));
#1578=VERTEX_POINT('',#1577);
#1579=CARTESIAN_POINT('',(6.8,29.,-9.5));
#1580=DIRECTION('',(0.,0.,1.));
#1581=VECTOR('',#1580,8.5);
#1582=LINE('',#1579,#1581);
#1583=EDGE_CURVE('',#1578,#666,#1582,.T.);
#1584=ORIENTED_EDGE('',*,*,#1583,.F.);
#1585=CARTESIAN_POINT('',(6.8,24.,-9.5));
#1586=VERTEX_POINT('',#1585);
#1587=CARTESIAN_POINT('',(6.8,29.,-9.5));
#1588=DIRECTION('',(0.,-1.,0.));
#1589=VECTOR('',#1588,5.);
#1590=LINE('',#1587,#1589);
#1591=EDGE_CURVE('',#1578,#1586,#1590,.T.);
#1592=ORIENTED_EDGE('',*,*,#1591,.T.);
#1593=CARTESIAN_POINT('',(6.8,24.,-9.5));
#1594=DIRECTION('',(0.,0.,1.));
#1595=VECTOR('',#1594,8.5);
#1596=LINE('',#1593,#1595);
#1597=EDGE_CURVE('',#1586,#676,#1596,.T.);
#1598=ORIENTED_EDGE('',*,*,#1597,.T.);
#1599=EDGE_LOOP('',(#1576,#1584,#1592,#1598));
#1600=FACE_BOUND('',#1599,.T.);
#1601=ADVANCED_FACE('',(#1600),#1575,.T.);
#1602=CARTESIAN_POINT('',(32.55,24.,-9.5));
#1603=DIRECTION('',(0.,-1.,0.));
#1604=DIRECTION('',(0.,0.,-1.));
#1605=AXIS2_PLACEMENT_3D('',#1602,#1603,#1604);
#1606=PLANE('',#1605);
#1607=ORIENTED_EDGE('',*,*,#689,.F.);
#1608=ORIENTED_EDGE('',*,*,#1597,.F.);
#1609=CARTESIAN_POINT('',(58.3,24.,-9.5));
#1610=VERTEX_POINT('',#1609);
#1611=CARTESIAN_POINT('',(6.8,24.,-9.5));
#1612=DIRECTION('',(1.,0.,-0.));
#1613=VECTOR('',#1612,51.5);
#1614=LINE('',#1611,#1613);
#1615=EDGE_CURVE('',#1586,#1610,#1614,.T.);
#1616=ORIENTED_EDGE('',*,*,#1615,.T.);
#1617=CARTESIAN_POINT('',(58.3,24.,-9.5));
#1618=DIRECTION('',(0.,0.,1.));
#1619=VECTOR('',#1618,8.5);
#1620=LINE('',#1617,#1619);
#1621=EDGE_CURVE('',#1610,#684,#1620,.T.);
#1622=ORIENTED_EDGE('',*,*,#1621,.T.);
#1623=EDGE_LOOP('',(#1607,#1608,#1616,#1622));
#1624=FACE_BOUND('',#1623,.T.);
#1625=ADVANCED_FACE('',(#1624),#1606,.T.);
#1626=CARTESIAN_POINT('',(58.3,26.5,-9.5));
#1627=DIRECTION('',(-1.,0.,0.));
#1628=DIRECTION('',(0.,0.,1.));
#1629=AXIS2_PLACEMENT_3D('',#1626,#1627,#1628);
#1630=PLANE('',#1629);
#1631=ORIENTED_EDGE('',*,*,#695,.T.);
#1632=ORIENTED_EDGE('',*,*,#1621,.F.);
#1633=CARTESIAN_POINT('',(58.3,29.,-9.5));
#1634=VERTEX_POINT('',#1633);
#1635=CARTESIAN_POINT('',(58.3,29.,-9.5));
#1636=DIRECTION('',(0.,-1.,0.));
#1637=VECTOR('',#1636,5.);
#1638=LINE('',#1635,#1637);
#1639=EDGE_CURVE('',#1634,#1610,#1638,.T.);
#1640=ORIENTED_EDGE('',*,*,#1639,.F.);
#1641=CARTESIAN_POINT('',(58.3,29.,-9.5));
#1642=DIRECTION('',(0.,0.,1.));
#1643=VECTOR('',#1642,8.5);
#1644=LINE('',#1641,#1643);
#1645=EDGE_CURVE('',#1634,#668,#1644,.T.);
#1646=ORIENTED_EDGE('',*,*,#1645,.T.);
#1647=EDGE_LOOP('',(#1631,#1632,#1640,#1646));
#1648=FACE_BOUND('',#1647,.T.);
#1649=ADVANCED_FACE('',(#1648),#1630,.F.);
#1650=CARTESIAN_POINT('',(32.55,29.,-9.5));
#1651=DIRECTION('',(0.,-1.,0.));
#1652=DIRECTION('',(0.,0.,-1.));
#1653=AXIS2_PLACEMENT_3D('',#1650,#1651,#1652);
#1654=PLANE('',#1653);
#1655=ORIENTED_EDGE('',*,*,#673,.T.);
#1656=ORIENTED_EDGE('',*,*,#1645,.F.);
#1657=CARTESIAN_POINT('',(6.8,29.,-9.5));
#1658=DIRECTION('',(1.,0.,-0.));
#1659=VECTOR('',#1658,51.5);
#1660=LINE('',#1657,#1659);
#1661=EDGE_CURVE('',#1578,#1634,#1660,.T.);
#1662=ORIENTED_EDGE('',*,*,#1661,.F.);
#1663=ORIENTED_EDGE('',*,*,#1583,.T.);
#1664=EDGE_LOOP('',(#1655,#1656,#1662,#1663));
#1665=FACE_BOUND('',#1664,.T.);
#1666=ADVANCED_FACE('',(#1665),#1654,.F.);
#1667=CARTESIAN_POINT('',(0.,0.,-9.5));
#1668=DIRECTION('',(0.,0.,1.));
#1669=DIRECTION('',(1.,0.,0.));
#1670=AXIS2_PLACEMENT_3D('',#1667,#1668,#1669);
#1671=PLANE('',#1670);
#1672=ORIENTED_EDGE('',*,*,#1591,.F.);
#1673=ORIENTED_EDGE('',*,*,#1661,.T.);
#1674=ORIENTED_EDGE('',*,*,#1639,.T.);
#1675=ORIENTED_EDGE('',*,*,#1615,.F.);
#1676=EDGE_LOOP('',(#1672,#1673,#1674,#1675));
#1677=FACE_BOUND('',#1676,.T.);
#1678=ADVANCED_FACE('',(#1677),#1671,.F.);
#1679=CARTESIAN_POINT('',(61.75,3.25,-6.7));
#1680=DIRECTION('',(0.,0.,1.));
#1681=DIRECTION('',(1.,0.,-0.));
#1682=AXIS2_PLACEMENT_3D('',#1679,#1680,#1681);
#1683=CYLINDRICAL_SURFACE('',#1682,1.25);
#1684=CARTESIAN_POINT('',(63.,3.25,0.));
#1685=DIRECTION('',(-0.,-0.,-1.));
#1686=VECTOR('',#1685,1.);
#1687=LINE('',#1684,#1686);
#1688=EDGE_CURVE('',#66,#655,#1687,.T.);
#1689=ORIENTED_EDGE('',*,*,#1688,.F.);
#1690=ORIENTED_EDGE('',*,*,#72,.T.);
#1691=ORIENTED_EDGE('',*,*,#1688,.T.);
#1692=ORIENTED_EDGE('',*,*,#661,.F.);
#1693=EDGE_LOOP('',(#1689,#1690,#1691,#1692));
#1694=FACE_BOUND('',#1693,.T.);
#1695=ADVANCED_FACE('',(#1694),#1683,.F.);
#1696=CARTESIAN_POINT('',(61.75,26.75,-5.6));
#1697=DIRECTION('',(0.,0.,1.));
#1698=DIRECTION('',(1.,0.,-0.));
#1699=AXIS2_PLACEMENT_3D('',#1696,#1697,#1698);
#1700=CYLINDRICAL_SURFACE('',#1699,1.25);
#1701=CARTESIAN_POINT('',(63.,26.75,0.));
#1702=DIRECTION('',(-0.,-0.,-1.));
#1703=VECTOR('',#1702,1.);
#1704=LINE('',#1701,#1703);
#1705=EDGE_CURVE('',#55,#644,#1704,.T.);
#1706=ORIENTED_EDGE('',*,*,#1705,.F.);
#1707=ORIENTED_EDGE('',*,*,#61,.T.);
#1708=ORIENTED_EDGE('',*,*,#1705,.T.);
#1709=ORIENTED_EDGE('',*,*,#650,.F.);
#1710=EDGE_LOOP('',(#1706,#1707,#1708,#1709));
#1711=FACE_BOUND('',#1710,.T.);
#1712=ADVANCED_FACE('',(#1711),#1700,.F.);
#1713=CARTESIAN_POINT('',(3.25,26.75,-8.2));
#1714=DIRECTION('',(0.,0.,1.));
#1715=DIRECTION('',(1.,0.,-0.));
#1716=AXIS2_PLACEMENT_3D('',#1713,#1714,#1715);
#1717=CYLINDRICAL_SURFACE('',#1716,1.25);
#1718=CARTESIAN_POINT('',(4.5,26.75,0.));
#1719=DIRECTION('',(-0.,-0.,-1.));
#1720=VECTOR('',#1719,1.);
#1721=LINE('',#1718,#1720);
#1722=EDGE_CURVE('',#44,#633,#1721,.T.);
#1723=ORIENTED_EDGE('',*,*,#1722,.F.);
#1724=ORIENTED_EDGE('',*,*,#50,.T.);
#1725=ORIENTED_EDGE('',*,*,#1722,.T.);
#1726=ORIENTED_EDGE('',*,*,#639,.F.);
#1727=EDGE_LOOP('',(#1723,#1724,#1725,#1726));
#1728=FACE_BOUND('',#1727,.T.);
#1729=ADVANCED_FACE('',(#1728),#1717,.F.);
#1730=CARTESIAN_POINT('',(3.25,3.25,-11.));
#1731=DIRECTION('',(0.,0.,1.));
#1732=DIRECTION('',(1.,0.,-0.));
#1733=AXIS2_PLACEMENT_3D('',#1730,#1731,#1732);
#1734=CYLINDRICAL_SURFACE('',#1733,1.25);
#1735=CARTESIAN_POINT('',(4.5,3.25,0.));
#1736=DIRECTION('',(-0.,-0.,-1.));
#1737=VECTOR('',#1736,1.);
#1738=LINE('',#1735,#1737);
#1739=EDGE_CURVE('',#33,#622,#1738,.T.);
#1740=ORIENTED_EDGE('',*,*,#1739,.F.);
#1741=ORIENTED_EDGE('',*,*,#39,.T.);
#1742=ORIENTED_EDGE('',*,*,#1739,.T.);
#1743=ORIENTED_EDGE('',*,*,#628,.F.);
#1744=EDGE_LOOP('',(#1740,#1741,#1742,#1743));
#1745=FACE_BOUND('',#1744,.T.);
#1746=ADVANCED_FACE('',(#1745),#1734,.F.);
#1747=CARTESIAN_POINT('',(2.,28.,-1.));
#1748=DIRECTION('',(0.,0.,1.));
#1749=DIRECTION('',(1.,0.,-0.));
#1750=AXIS2_PLACEMENT_3D('',#1747,#1748,#1749);
#1751=CYLINDRICAL_SURFACE('',#1750,2.);
#1752=ORIENTED_EDGE('',*,*,#729,.F.);
#1753=ORIENTED_EDGE('',*,*,#473,.F.);
#1754=ORIENTED_EDGE('',*,*,#178,.F.);
#1755=ORIENTED_EDGE('',*,*,#435,.F.);
#1756=EDGE_LOOP('',(#1752,#1753,#1754,#1755));
#1757=FACE_BOUND('',#1756,.T.);
#1758=ADVANCED_FACE('',(#1757),#1751,.T.);
#1759=CARTESIAN_POINT('',(2.,2.,-1.));
#1760=DIRECTION('',(0.,0.,1.));
#1761=DIRECTION('',(1.,0.,-0.));
#1762=AXIS2_PLACEMENT_3D('',#1759,#1760,#1761);
#1763=CYLINDRICAL_SURFACE('',#1762,2.);
#1764=ORIENTED_EDGE('',*,*,#721,.F.);
#1765=ORIENTED_EDGE('',*,*,#580,.F.);
#1766=ORIENTED_EDGE('',*,*,#227,.F.);
#1767=ORIENTED_EDGE('',*,*,#459,.F.);
#1768=EDGE_LOOP('',(#1764,#1765,#1766,#1767));
#1769=FACE_BOUND('',#1768,.T.);
#1770=ADVANCED_FACE('',(#1769),#1763,.T.);
#1771=CARTESIAN_POINT('',(63.,2.,-1.));
#1772=DIRECTION('',(0.,0.,1.));
#1773=DIRECTION('',(1.,0.,-0.));
#1774=AXIS2_PLACEMENT_3D('',#1771,#1772,#1773);
#1775=CYLINDRICAL_SURFACE('',#1774,2.);
#1776=ORIENTED_EDGE('',*,*,#713,.F.);
#1777=ORIENTED_EDGE('',*,*,#611,.F.);
#1778=ORIENTED_EDGE('',*,*,#370,.F.);
#1779=ORIENTED_EDGE('',*,*,#497,.F.);
#1780=EDGE_LOOP('',(#1776,#1777,#1778,#1779));
#1781=FACE_BOUND('',#1780,.T.);
#1782=ADVANCED_FACE('',(#1781),#1775,.T.);
#1783=CARTESIAN_POINT('',(63.,28.,-1.));
#1784=DIRECTION('',(0.,0.,1.));
#1785=DIRECTION('',(1.,0.,-0.));
#1786=AXIS2_PLACEMENT_3D('',#1783,#1784,#1785);
#1787=CYLINDRICAL_SURFACE('',#1786,2.);
#1788=ORIENTED_EDGE('',*,*,#705,.F.);
#1789=ORIENTED_EDGE('',*,*,#421,.F.);
#1790=ORIENTED_EDGE('',*,*,#161,.F.);
#1791=ORIENTED_EDGE('',*,*,#604,.F.);
#1792=EDGE_LOOP('',(#1788,#1789,#1790,#1791));
#1793=FACE_BOUND('',#1792,.T.);
#1794=ADVANCED_FACE('',(#1793),#1787,.T.);
#1795=CLOSED_SHELL('',(#408,#439,#477,#584,#615,#733,#757,#781,#798,#810,#834,#858,#875,#887,#911,#935,#952,#964,#995,#1027,#1058,#1081,#1093,#1105,#1144,#1175,
#1205,#1222,#1234,#1246,#1277,#1301,#1325,#1342,#1354,#1385,#1409,#1433,#1450,#1462,#1493,#1517,#1541,#1558,#1570,#1601,#1625,#1649,#1666,#1678,#1695,
#1712,#1729,#1746,#1758,#1770,#1782,#1794));
#1796=MANIFOLD_SOLID_BREP('Body 01',#1795);
#1797=COLOUR_RGB('',0.494117647,0.494117647,0.525490224);
#1798=FILL_AREA_STYLE_COLOUR('',#1797);
#1799=FILL_AREA_STYLE('',(#1798));
#1800=SURFACE_STYLE_FILL_AREA(#1799);
#1801=SURFACE_SIDE_STYLE('',(#1800));
#1802=SURFACE_STYLE_USAGE(.BOTH.,#1801);
#1803=PRESENTATION_STYLE_ASSIGNMENT((#1802));
#26=STYLED_ITEM('',(#1803),#1796);
#16=SHAPE_REPRESENTATION('/var/mobile/Containers/Data/Application/ED4C2A4C-7E5D-45B7-BA36-C01864C68EB8/Documents/A2867DB8-CD23-456E-BED2-81E4105DE953.tmp',(#15),#10);
#17=ADVANCED_BREP_SHAPE_REPRESENTATION('/var/mobile/Containers/Data/Application/ED4C2A4C-7E5D-45B7-BA36-C01864C68EB8/Documents/A2867DB8-CD23-456E-BED2-81E4105DE953.tmp',(#1796),#10);
#1811=SHAPE_REPRESENTATION_RELATIONSHIP('','',#16,#17);
#1812=APPLICATION_CONTEXT('configuration controlled 3D design of mechanical parts and assemblies');
#1813=APPLICATION_PROTOCOL_DEFINITION('international standard','configuration_control_3d_design_ed2_mim',2004,#1812);
#1814=PRODUCT_CONTEXT('',#1812,'mechanical');
#1815=PRODUCT_DEFINITION_CONTEXT('part definition',#1812,'design');
#24=PRODUCT('/var/mobile/Containers/Data/Application/ED4C2A4C-7E5D-45B7-BA36-C01864C68EB8/Documents/A2867DB8-CD23-456E-BED2-81E4105DE953.tmp','/var/mobile/Containers/Data/Application/ED4C2A4C-7E5D-45B7-BA36-C01864C68EB8/Documents/A2867DB8-CD23-456E-BED2-81E4105DE953.tmp','',(#1814));
#1816=PRODUCT_RELATED_PRODUCT_CATEGORY('part','',(#24));
#1817=PRODUCT_DEFINITION_FORMATION_WITH_SPECIFIED_SOURCE('','',#24,.NOT_KNOWN.);
#25=PRODUCT_DEFINITION('design','',#1817,#1815);
#23=PRODUCT_DEFINITION_SHAPE('','',#25);
#1818=SHAPE_DEFINITION_REPRESENTATION(#23,#16);
#11=DRAUGHTING_MODEL('',(),#10);
#1=MECHANICAL_DESIGN_GEOMETRIC_PRESENTATION_REPRESENTATION('',(#26),#10);
ENDSEC;
END-ISO-10303-21;
